<svg width="1376" height="244" viewBox="0 0 1376 244" fill="none" xmlns="http://www.w3.org/2000/svg">
<g opacity="0.4">
<path d="M225.11 157.945C231.336 155.543 236.126 153.741 241.035 151.459C268.456 139.329 282.106 117.109 278.514 90.5661C275.52 67.1457 261.391 52.9733 240.916 43.9655C216.13 33.036 189.667 29.7932 162.846 29.4329C158.774 29.4329 154.823 29.1927 150.752 29.1927H0V245.741H93.3967V166.472H141.652L192.301 245.741H286.656C263.666 213.073 237.802 175.96 225.11 157.945ZM182.124 115.187C178.052 131.161 166.677 139.809 150.752 140.77C148.716 141.01 144.885 141.01 140.454 141.13H93.3967V53.0935C93.3967 53.0935 135.904 53.0935 143.089 53.3337C167.635 53.9342 181.525 66.0647 184.279 90.6861C185.117 98.7332 184.279 107.261 182.124 115.067" fill="white"/>
<path d="M376.631 77.1053L405.488 74.5831V245.732H327.059V131.393C327.059 103.168 348.612 79.5073 376.631 77.1053Z" fill="white"/>
<path d="M411.181 28.2246C411.181 43.8381 390.945 56.4491 366.159 56.4491C341.373 56.4491 321.137 43.8381 321.137 28.2246C321.137 12.611 341.253 0 366.159 0C391.065 0 411.181 12.611 411.181 28.2246Z" fill="white"/>
<path d="M612.503 214.749C612.503 208.503 612.742 201.297 612.503 193.971V137.281C612.503 114.221 593.823 95.4849 570.714 95.4849C547.604 95.4849 528.925 114.221 528.925 137.281V245.736H450.256V147.37C450.256 105.694 483.903 71.8243 525.572 71.8243H615.376C656.806 71.8243 690.453 105.334 690.693 146.77V154.576C690.693 195.052 690.812 245.736 690.812 245.736H612.503V214.749Z" fill="white"/>
<path d="M894.074 90.3211C884.375 85.637 878.388 81.1932 866.773 77.59C848.094 71.9451 828.097 70.5039 808.819 72.906C790.858 75.3081 770.383 80.3525 755.895 91.5222C744.639 100.17 736.976 112.541 733.024 126.232C726.439 149.893 726.558 173.674 733.862 197.334C740.328 218.473 754.577 232.405 775.053 239.491C784.153 242.734 793.612 245.136 803.072 246.337C835.641 250.421 867.252 250.42 893.475 221.715V245.736C894.313 274.802 873.958 288.974 850.369 290.896C827.379 292.697 804.509 290.295 782.357 283.209C779.723 282.248 777.687 281.648 776.37 280.927L771.58 279.125L762.72 314.196L769.784 316.478C771.221 316.838 773.975 317.679 776.49 318.52C809.059 327.648 842.706 330.05 876.352 328.008C899.941 326.447 922.572 320.802 942.927 307.83C960.409 296.781 972.144 268.076 972.264 246.457V74.9477L894.433 90.3211H894.074ZM892.996 184.003C892.397 214.509 853.961 236.248 827.379 220.995C819.955 216.791 815.166 209.345 812.292 201.178C803.671 176.796 804.628 147.491 811.933 122.869C816.123 108.697 826.78 98.248 841.508 95.8459C857.433 93.2036 876.352 96.4464 887.967 108.337C893.954 114.582 893.355 125.031 893.355 133.198C893.116 150.133 893.355 167.068 892.996 184.003Z" fill="white"/>
<path d="M1175.9 196.257C1173.26 204.544 1169.07 212.351 1162.25 217.876C1154.58 223.881 1144.76 226.403 1135.3 226.403C1090.64 226.403 1091.48 167.913 1091.48 167.913H1257.44C1257.2 165.51 1257.2 162.868 1257.08 160.466C1256.12 149.537 1254.92 138.847 1251.09 128.518C1247.26 118.429 1241.27 107.98 1233.13 100.414C1224.63 92.9674 1215.41 87.5627 1204.99 83.7193C1159.73 67.0248 1113.03 67.1449 1067.77 82.5183C1018.68 99.0927 998.562 151.939 1020.71 199.02C1031.97 222.68 1051.85 234.931 1076.03 241.176C1114.11 251.025 1152.55 250.905 1190.98 242.377C1209.9 238.174 1227.38 229.886 1240.68 214.753C1247.98 206.466 1253.13 196.858 1255.4 184.727H1178.77C1178.53 187.61 1177.93 190.973 1176.14 196.377M1135.19 95.3695C1180.09 95.3695 1179.01 144.973 1179.01 144.973H1091.24C1091.24 144.973 1090.4 95.3695 1135.07 95.3695" fill="white"/>
<path d="M1347.08 9.61544L1375.94 7.09326V245.741H1297.51V63.9027C1297.51 35.6782 1319.06 12.1376 1347.08 9.61544Z" fill="white"/>
</g>
</svg>
