<svg width="10" height="8" viewBox="0 0 10 8" fill="none" xmlns="http://www.w3.org/2000/svg">
<path d="M9.90066 1.32758C10.0522 1.14575 10.0276 0.875505 9.84578 0.723978C9.66395 0.572451 9.39371 0.597018 9.24218 0.778851L6.1618 4.47531C5.54304 5.21782 5.10776 5.73854 4.73022 6.07946C4.36149 6.41243 4.10701 6.51826 3.85715 6.51826C3.60728 6.51826 3.35281 6.41243 2.98407 6.07946C2.60653 5.73854 2.17125 5.21782 1.55249 4.4753L0.757818 3.5217C0.606291 3.33987 0.33605 3.3153 0.154217 3.46683C-0.0276155 3.61836 -0.0521829 3.8886 0.0993443 4.07043L0.916068 5.0505C1.50765 5.76042 1.98141 6.32895 2.40962 6.71562C2.85193 7.11503 3.30408 7.3754 3.85715 7.3754C4.41021 7.3754 4.86236 7.11503 5.30467 6.71562C5.73287 6.32895 6.20663 5.76043 6.79821 5.05052L9.90066 1.32758Z" fill="#FFDE14"/>
</svg>
