<svg width="30" height="30" viewBox="0 0 30 30" fill="none" xmlns="http://www.w3.org/2000/svg">
<g clip-path="url(#clip0_2182_2978)">
<path d="M27.7723 4.22745H24.545V2.36381C24.545 1.50018 23.8632 0.818359 22.9996 0.818359C22.1359 0.818359 21.4541 1.50018 21.4541 2.36381V4.22745H8.54501V2.36381C8.54501 1.50018 7.86319 0.818359 6.99956 0.818359C6.13592 0.818359 5.4541 1.54563 5.4541 2.36381V4.22745H2.22683C1.22683 4.22745 0.454102 5.04563 0.454102 6.00018V27.4093C0.454102 28.3638 1.22683 29.182 2.22683 29.182H27.7723C28.7268 29.182 29.545 28.4093 29.545 27.4093V6.00018C29.545 5.04563 28.7723 4.22745 27.7723 4.22745ZM22.9996 1.72745C23.3632 1.72745 23.6814 2.04563 23.6814 2.40927V6.00018C23.6814 6.36381 23.3632 6.682 22.9996 6.682C22.6359 6.682 22.3177 6.36381 22.3177 6.00018C22.3177 5.90927 22.3177 2.36381 22.3177 2.40927C22.3177 2.00018 22.6359 1.72745 22.9996 1.72745ZM6.99956 1.72745C7.36319 1.72745 7.68137 2.04563 7.68137 2.40927V6.00018C7.68137 6.36381 7.36319 6.682 6.99956 6.682C6.63592 6.682 6.31774 6.36381 6.31774 6.00018C6.31774 5.90927 6.31774 2.36381 6.31774 2.40927C6.36319 2.00018 6.63592 1.72745 6.99956 1.72745ZM2.22683 5.13654H5.4541V6.00018C5.4541 6.86381 6.13592 7.54563 6.99956 7.54563C7.86319 7.54563 8.54501 6.86381 8.54501 6.00018V5.13654H21.4541V6.00018C21.4541 6.86381 22.1359 7.54563 22.9996 7.54563C23.8632 7.54563 24.545 6.81836 24.545 5.95472V5.09109H27.8177C28.3177 5.09109 28.6814 5.50018 28.6814 5.95472V8.50018H1.31774V5.95472C1.31774 5.50018 1.72683 5.13654 2.22683 5.13654ZM27.7723 28.2729H2.22683C1.72683 28.2729 1.36319 27.8638 1.36319 27.4093V9.40927H28.6814V27.4093C28.6814 27.9093 28.2723 28.2729 27.7723 28.2729Z" fill="#282934"/>
<path d="M20 16.6367H16.4545C16.2273 16.6367 16 16.8185 16 17.0913V20.6367C16 20.864 16.1818 21.0913 16.4545 21.0913H20C20.2273 21.0913 20.4545 20.9094 20.4545 20.6367V17.0913C20.4545 16.864 20.2273 16.6367 20 16.6367ZM19.5455 20.1822H16.9091V17.5458H19.5455V20.1822Z" fill="#282934"/>
<path d="M20 11.1821H16.4545C16.2273 11.1821 16 11.3639 16 11.6367V15.1821C16 15.4094 16.1818 15.6367 16.4545 15.6367H20C20.2273 15.6367 20.4545 15.4549 20.4545 15.1821V11.6367C20.4545 11.3639 20.2273 11.1821 20 11.1821ZM19.5455 14.6821H16.9091V12.0458H19.5455V14.6821Z" fill="#282934"/>
<path d="M26.4541 16.6365H22.9086C22.6814 16.6365 22.4541 16.8184 22.4541 17.0911V20.6365C22.4541 20.8638 22.6359 21.0911 22.9086 21.0911H26.4541C26.6814 21.0911 26.9086 20.9093 26.9086 20.6365V17.0911C26.9086 16.8638 26.6814 16.6365 26.4541 16.6365ZM25.9996 20.182H23.3632V17.5456H25.9996V20.182Z" fill="#282934"/>
<path d="M19.6358 22.8184L17.6358 24.8184L16.8176 23.9547C16.6358 23.7729 16.3631 23.7729 16.1813 23.9547C15.9995 24.1365 15.9995 24.4093 16.1813 24.5911L17.3176 25.7275C17.4086 25.8184 17.4995 25.8638 17.6358 25.8638C17.7267 25.8638 17.8631 25.8184 17.954 25.7275L20.2722 23.4093C20.454 23.2275 20.454 22.9547 20.2722 22.7729C20.0904 22.6365 19.8177 22.6365 19.6358 22.8184Z" fill="#282934"/>
<path d="M26.4541 11.182H22.9086C22.6814 11.182 22.4541 11.3638 22.4541 11.6365V15.182C22.4541 15.4093 22.6359 15.6365 22.9086 15.6365H26.4541C26.6814 15.6365 26.9086 15.4547 26.9086 15.182V11.6365C26.9086 11.3638 26.6814 11.182 26.4541 11.182ZM25.9996 14.682H23.3632V12.0456H25.9996V14.682Z" fill="#282934"/>
<path d="M13.5449 16.6365H9.99947C9.77219 16.6365 9.54492 16.8184 9.54492 17.0911V20.6365C9.54492 20.8638 9.72674 21.0911 9.99947 21.0911H13.5449C13.7722 21.0911 13.9995 20.9093 13.9995 20.6365V17.0911C13.954 16.8638 13.7722 16.6365 13.5449 16.6365ZM13.0904 20.182H10.454V17.5456H13.0904V20.182Z" fill="#282934"/>
<path d="M13.5449 22.1365H9.99947C9.77219 22.1365 9.54492 22.3184 9.54492 22.5911V26.1365C9.54492 26.3638 9.72674 26.5911 9.99947 26.5911H13.5449C13.7722 26.5911 13.9995 26.4093 13.9995 26.1365V22.5911C13.954 22.3184 13.7722 22.1365 13.5449 22.1365ZM13.0904 25.6365H10.454V23.0002H13.0904V25.6365Z" fill="#282934"/>
<path d="M13.5449 11.182H9.99947C9.77219 11.182 9.54492 11.3638 9.54492 11.6365V15.182C9.54492 15.4093 9.72674 15.6365 9.99947 15.6365H13.5449C13.7722 15.6365 13.9995 15.4547 13.9995 15.182V11.6365C13.954 11.3638 13.7722 11.182 13.5449 11.182ZM13.0904 14.682H10.454V12.0456H13.0904V14.682Z" fill="#282934"/>
<path d="M7.04537 16.6367H3.54537C3.31809 16.6367 3.09082 16.8185 3.09082 17.0913V20.6367C3.09082 20.864 3.27264 21.0913 3.54537 21.0913H7.09082C7.31809 21.0913 7.54537 20.9094 7.54537 20.6367V17.0913C7.49991 16.864 7.31809 16.6367 7.04537 16.6367ZM6.63627 20.1822H3.99991V17.5458H6.63627V20.1822Z" fill="#282934"/>
<path d="M7.04537 22.1367H3.54537C3.31809 22.1367 3.09082 22.3185 3.09082 22.5913V26.1367C3.09082 26.364 3.27264 26.5913 3.54537 26.5913H7.09082C7.31809 26.5913 7.54537 26.4094 7.54537 26.1367V22.5913C7.49991 22.3185 7.31809 22.1367 7.04537 22.1367ZM6.63627 25.6367H3.99991V23.0004H6.63627V25.6367Z" fill="#282934"/>
<path d="M7.04537 11.1821H3.54537C3.31809 11.1821 3.09082 11.3639 3.09082 11.6367V15.1821C3.09082 15.4094 3.27264 15.6367 3.54537 15.6367H7.09082C7.31809 15.6367 7.54537 15.4549 7.54537 15.1821V11.6367C7.49991 11.3639 7.31809 11.1821 7.04537 11.1821ZM6.63627 14.6821H3.99991V12.0458H6.63627V14.6821Z" fill="#282934"/>
</g>
<defs>
<clipPath id="clip0_2182_2978">
<rect width="30" height="30" fill="white"/>
</clipPath>
</defs>
</svg>
