<svg width="30" height="30" viewBox="0 0 30 30" fill="none" xmlns="http://www.w3.org/2000/svg">
<mask id="mask0_2182_2953" style="mask-type:luminance" maskUnits="userSpaceOnUse" x="0" y="0" width="30" height="30">
<path d="M0 1.90735e-06H30V30H0V1.90735e-06Z" fill="white"/>
</mask>
<g mask="url(#mask0_2182_2953)">
<path d="M6.44531 17.6953L1.57031 9.69668C0.948633 8.76621 0.585938 7.64824 0.585938 6.44531C0.585938 3.20918 3.20918 0.58594 6.44531 0.58594C9.68144 0.58594 12.3047 3.20918 12.3047 6.44531C12.3047 7.64824 11.942 8.76621 11.3203 9.69668L6.44531 17.6953Z" stroke="#282934" stroke-width="1.22396" stroke-miterlimit="10" stroke-linecap="round" stroke-linejoin="round"/>
<path d="M8.78906 6.44531C8.78906 7.73965 7.73965 8.78906 6.44531 8.78906C5.15098 8.78906 4.10156 7.73965 4.10156 6.44531C4.10156 5.15098 5.15098 4.10156 6.44531 4.10156C7.73965 4.10156 8.78906 5.15098 8.78906 6.44531Z" stroke="#282934" stroke-width="1.22396" stroke-miterlimit="10" stroke-linecap="round" stroke-linejoin="round"/>
<path d="M23.5547 27.0703C24.2021 27.0703 24.7266 27.5953 24.7266 28.2422C24.7266 28.8896 24.2021 29.4141 23.5547 29.4141C22.9072 29.4141 22.3828 28.8896 22.3828 28.2422C22.3828 27.5953 22.9072 27.0703 23.5547 27.0703Z" stroke="#282934" stroke-width="1.22396" stroke-miterlimit="10" stroke-linecap="round" stroke-linejoin="round"/>
<path d="M23.5547 27.0703L18.6797 19.4233C18.058 18.4928 17.6953 17.3748 17.6953 16.1719C17.6953 12.9357 20.3186 10.3125 23.5547 10.3125C26.7908 10.3125 29.4141 12.9357 29.4141 16.1719C29.4141 17.3748 29.0514 18.4928 28.4297 19.4233L23.5547 27.0703Z" stroke="#282934" stroke-width="1.22396" stroke-miterlimit="10" stroke-linecap="round" stroke-linejoin="round"/>
<path d="M25.8984 16.1719C25.8984 17.4662 24.849 18.5156 23.5547 18.5156C22.2604 18.5156 21.2109 17.4662 21.2109 16.1719C21.2109 14.8775 22.2604 13.8281 23.5547 13.8281C24.849 13.8281 25.8984 14.8775 25.8984 16.1719Z" stroke="#282934" stroke-width="1.22396" stroke-miterlimit="10" stroke-linecap="round" stroke-linejoin="round"/>
<path d="M7.61719 18.8672C7.61719 19.5146 7.09277 20.0391 6.44531 20.0391C5.79785 20.0391 5.27344 19.5146 5.27344 18.8672C5.27344 18.2203 5.79785 17.6953 6.44531 17.6953C7.09277 17.6953 7.61719 18.2203 7.61719 18.8672Z" stroke="#282934" stroke-width="1.22396" stroke-miterlimit="10" stroke-linecap="round" stroke-linejoin="round"/>
<path d="M14.707 28.2422C14.707 28.5658 14.4447 28.8281 14.1211 28.8281C13.7975 28.8281 13.5352 28.5658 13.5352 28.2422C13.5352 27.9186 13.7975 27.6563 14.1211 27.6563C14.4447 27.6563 14.707 27.9186 14.707 28.2422Z" fill="#282934"/>
<path d="M7.61719 18.8672H12.6562C13.9506 18.8672 15 19.9166 15 21.2109C15 22.5053 13.9506 23.5547 12.6562 23.5547H5.625C4.33066 23.5547 3.28125 24.6041 3.28125 25.8984C3.28125 27.1928 4.33066 28.2422 5.625 28.2422H11.4844" stroke="#282934" stroke-width="1.22396" stroke-miterlimit="10" stroke-linecap="round" stroke-linejoin="round"/>
<path d="M16.7578 28.2422H22.3828" stroke="#282934" stroke-width="1.22396" stroke-miterlimit="10" stroke-linecap="round" stroke-linejoin="round"/>
</g>
</svg>
