<svg width="16" height="16" viewBox="0 0 16 16" fill="none" xmlns="http://www.w3.org/2000/svg">
<path fill-rule="evenodd" clip-rule="evenodd" d="M7.99984 4.16675C6.61913 4.16675 5.49984 5.28604 5.49984 6.66675C5.49984 8.04746 6.61913 9.16675 7.99984 9.16675C9.38055 9.16675 10.4998 8.04746 10.4998 6.66675C10.4998 5.28604 9.38055 4.16675 7.99984 4.16675ZM6.49984 6.66675C6.49984 5.83832 7.17141 5.16675 7.99984 5.16675C8.82826 5.16675 9.49984 5.83832 9.49984 6.66675C9.49984 7.49518 8.82826 8.16675 7.99984 8.16675C7.17141 8.16675 6.49984 7.49518 6.49984 6.66675Z" fill="white"/>
<path fill-rule="evenodd" clip-rule="evenodd" d="M7.99984 0.166748C4.74428 0.166748 2.1665 2.99526 2.1665 6.40588C2.1665 7.49969 2.70991 8.78771 3.3936 9.99643C4.08835 11.2247 4.97509 12.4509 5.75253 13.4423L5.77846 13.4753C6.15793 13.9593 6.48119 14.3716 6.79467 14.6563C7.13666 14.967 7.5138 15.1704 7.99984 15.1704C8.48588 15.1704 8.86301 14.967 9.20501 14.6563C9.51848 14.3716 9.84175 13.9593 10.2212 13.4753L10.2471 13.4423C11.0246 12.4509 11.9113 11.2247 12.6061 9.99643C13.2898 8.78771 13.8332 7.49969 13.8332 6.40588C13.8332 2.99526 11.2554 0.166748 7.99984 0.166748ZM3.1665 6.40588C3.1665 3.47722 5.36436 1.16675 7.99984 1.16675C10.6353 1.16675 12.8332 3.47722 12.8332 6.40588C12.8332 7.22354 12.4068 8.31766 11.7357 9.5041C11.0756 10.671 10.2226 11.853 9.46025 12.8252C9.04761 13.3514 8.77592 13.6951 8.53263 13.9161C8.31074 14.1177 8.16262 14.1704 7.99984 14.1704C7.83705 14.1704 7.68894 14.1177 7.46705 13.9161C7.22375 13.6951 6.95207 13.3514 6.53943 12.8252C5.77703 11.853 4.92403 10.671 4.26401 9.5041C3.59292 8.31766 3.1665 7.22354 3.1665 6.40588Z" fill="white"/>
</svg>
