<svg width="478" height="48" viewBox="0 0 478 48" fill="none" xmlns="http://www.w3.org/2000/svg">
<g filter="url(#filter0_d_2013_85)">
<rect x="-25.6113" y="19.2676" width="604.121" height="11.8133" fill="#282934"/>
</g>
<rect x="-25.6113" y="22.5491" width="604.121" height="5.25037" fill="white"/>
<g filter="url(#filter1_d_2013_85)">
<rect x="227.391" y="6.94666" width="98.293" height="36.4551" rx="4.92637" fill="white" shape-rendering="crispEdges"/>
<rect x="225.42" y="4.97611" width="102.234" height="40.3962" rx="6.89692" stroke="#282934" stroke-width="3.9411" shape-rendering="crispEdges"/>
<path d="M250.468 32.6839C250.394 35.0321 249.624 37.05 248.303 38.2608C247.129 39.3615 245.771 39.9118 243.79 39.9118C241.369 39.9118 239.791 38.9579 238.727 37.6737C237.003 35.6191 236.819 32.7573 236.819 26.5568C236.819 20.3562 237.003 17.4944 238.727 15.4398C239.791 14.1556 241.369 13.2017 243.79 13.2017C245.771 13.2017 247.202 13.7887 248.376 14.8894C249.697 16.1002 250.394 18.0814 250.468 20.3929H246.359C246.322 19.439 246.175 18.485 245.735 17.8613C245.368 17.2743 244.781 16.9074 243.79 16.9074C242.8 16.9074 242.213 17.311 241.846 17.898C241.039 19.1454 240.928 21.7871 240.928 26.5568C240.928 31.3264 241.039 33.9681 241.846 35.2155C242.213 35.8026 242.8 36.2061 243.79 36.2061C244.781 36.2061 245.368 35.8392 245.735 35.2522C246.175 34.5918 246.322 33.6379 246.359 32.6839H250.468ZM267.025 33.1976C267.025 35.1788 266.364 36.8299 265.227 38.0039C263.979 39.2881 262.328 39.9118 260.384 39.9118C258.439 39.9118 256.751 39.2881 255.504 38.0039C254.367 36.8299 253.706 35.1788 253.706 33.1976V13.4952H257.815V33.4177C257.815 35.2889 258.99 36.2061 260.384 36.2061C261.778 36.2061 262.915 35.2889 262.915 33.4177V13.4952H267.025V33.1976ZM285.322 39.6183H281.029L277.617 28.9049H275.306V39.6183H271.196V13.4952H277.8C282.57 13.4952 284.478 15.8067 284.478 21.2001C284.478 24.4288 283.818 26.7402 281.433 28.0243L285.322 39.6183ZM280.369 21.2001C280.369 19.0354 280.039 17.2009 277.837 17.2009H275.306V25.1992H277.837C280.039 25.1992 280.369 23.3648 280.369 21.2001ZM302.843 39.6183H298.55L295.138 28.9049H292.826V39.6183H288.717V13.4952H295.321C300.091 13.4952 301.999 15.8067 301.999 21.2001C301.999 24.4288 301.338 26.7402 298.953 28.0243L302.843 39.6183ZM297.889 21.2001C297.889 19.0354 297.559 17.2009 295.358 17.2009H292.826V25.1992H295.358C297.559 25.1992 297.889 23.3648 297.889 21.2001ZM317.735 13.4952L312.671 29.3819V39.6183H308.562V29.3819L303.499 13.4952H308.049L310.617 23.8417L313.222 13.4952H317.735Z" fill="#282934"/>
</g>
</svg>
