<svg width="51" height="51" viewBox="0 0 51 51" fill="none" xmlns="http://www.w3.org/2000/svg">
<rect x="-0.410362" y="0.410362" width="50.1793" height="50.1793" rx="5.58964" transform="matrix(-1 0 0 1 50.1793 0)" fill="#282934"/>
<rect x="-0.410362" y="0.410362" width="50.1793" height="50.1793" rx="5.58964" transform="matrix(-1 0 0 1 50.1793 0)" stroke="#F4F4F4" stroke-width="0.820724"/>
<path d="M20.972 19.9673C21.2662 19.6757 21.7411 19.6778 22.0327 19.972C22.3243 20.2662 22.3222 20.7411 22.028 21.0327L20.265 22.78C19.5495 23.4891 19.0587 23.9772 18.7266 24.3907C18.6187 24.5251 18.5345 24.6434 18.4691 24.75L33.5 24.75C33.9142 24.75 34.25 25.0858 34.25 25.5C34.25 25.9142 33.9142 26.25 33.5 26.25L18.4691 26.25C18.5345 26.3566 18.6187 26.4749 18.7266 26.6093C19.0587 27.0228 19.5495 27.5109 20.265 28.22L22.028 29.9673C22.3222 30.2589 22.3243 30.7338 22.0327 31.028C21.7411 31.3222 21.2662 31.3243 20.972 31.0327L19.1773 29.2539C18.5013 28.584 17.9489 28.0364 17.5571 27.5485C17.1496 27.0412 16.8547 26.5263 16.7759 25.9082C16.7586 25.7726 16.75 25.6363 16.75 25.5C16.75 25.3637 16.7586 25.2274 16.7759 25.0918C16.8547 24.4737 17.1496 23.9588 17.5571 23.4515C17.9489 22.9636 18.5013 22.416 19.1773 21.7461L20.972 19.9673Z" fill="#FFDE14"/>
</svg>
