<svg width="17" height="18" viewBox="0 0 17 18" fill="none" xmlns="http://www.w3.org/2000/svg">
<path d="M16.7592 7.66412L13.0607 11.2694L13.9341 16.3614C13.9721 16.584 13.8807 16.8091 13.6978 16.9421C13.5945 17.0175 13.4716 17.0555 13.3487 17.0555C13.2543 17.0555 13.1593 17.0329 13.0726 16.9872L8.49955 14.5831L3.92708 16.9866C3.72758 17.0923 3.48473 17.0751 3.30186 16.9415C3.11898 16.8085 3.02754 16.5834 3.06554 16.3608L3.93895 11.2688L0.239888 7.66412C0.0783876 7.50619 0.0196063 7.26987 0.0896688 7.05553C0.159731 6.84119 0.345575 6.68384 0.569419 6.65119L5.68101 5.909L7.96695 1.27656C8.16704 0.871029 8.83204 0.871029 9.03214 1.27656L11.3181 5.909L16.4297 6.65119C16.6535 6.68384 16.8394 6.84059 16.9094 7.05553C16.9795 7.27047 16.9207 7.50559 16.7592 7.66412Z" fill="#FFDE14"/>
</svg>
