<svg width="16" height="16" viewBox="0 0 16 16" fill="none" xmlns="http://www.w3.org/2000/svg">
<path fill-rule="evenodd" clip-rule="evenodd" d="M11.6425 1.58249C10.8811 1.49999 9.92135 1.49999 8.697 1.5H7.30333C6.07897 1.49999 5.11924 1.49999 4.35781 1.58249C3.58079 1.66667 2.9512 1.84155 2.41365 2.2321C2.08822 2.46854 1.80204 2.75473 1.5656 3.08016C1.45781 3.22852 1.3655 3.38521 1.28674 3.55198C1.04555 4.06269 0.93797 4.65491 0.885539 5.36112C0.833493 6.06215 0.833494 6.92149 0.833496 7.98104V8.03017C0.833491 9.25452 0.833486 10.2143 0.915982 10.9757C1.00017 11.7527 1.17505 12.3823 1.5656 12.9198C1.80204 13.2453 2.08822 13.5315 2.41365 13.7679C2.9512 14.1585 3.58079 14.3333 4.35781 14.4175C5.11922 14.5 6.07894 14.5 7.30326 14.5H8.69701C9.92134 14.5 10.8811 14.5 11.6425 14.4175C12.4195 14.3333 13.0491 14.1585 13.5867 13.7679C13.9121 13.5315 14.1983 13.2453 14.4347 12.9198C14.8253 12.3823 15.0002 11.7527 15.0843 10.9757C15.1668 10.2143 15.1668 9.25456 15.1668 8.03023V7.9806C15.1668 6.91382 15.1668 6.0499 15.1137 5.34603C15.0601 4.63671 14.9501 4.04252 14.7032 3.53031C14.6267 3.37156 14.5378 3.22203 14.4347 3.08016C14.1983 2.75473 13.9121 2.46854 13.5867 2.2321C13.0491 1.84155 12.4195 1.66667 11.6425 1.58249ZM3.00144 3.04112C3.34011 2.79506 3.77359 2.65163 4.46553 2.57667C5.16682 2.50069 6.07245 2.5 7.3335 2.5H8.66683C9.92788 2.5 10.8335 2.50069 11.5348 2.57667C12.2267 2.65163 12.6602 2.79506 12.9989 3.04112C13.2393 3.21579 13.4507 3.4272 13.6255 3.6676L12.3607 4.9324C11.2395 6.05351 10.4335 6.85802 9.73833 7.38844C9.05466 7.91007 8.53724 8.11929 8.00016 8.11929C7.46309 8.11929 6.94566 7.91007 6.262 7.38844C5.56679 6.85802 4.76078 6.05351 3.63967 4.9324L2.37487 3.6676C2.54958 3.4272 2.76102 3.21579 3.00144 3.04112ZM14.025 4.68225C14.0653 4.89574 14.0952 5.13927 14.1165 5.42136C14.1665 6.08329 14.1668 6.90988 14.1668 8C14.1668 9.26105 14.1661 10.1667 14.0902 10.868C14.0152 11.5599 13.8718 11.9934 13.6257 12.3321C13.451 12.5726 13.2394 12.7841 12.9989 12.9589C12.6602 13.2049 12.2267 13.3484 11.5348 13.4233C10.8335 13.4993 9.92788 13.5 8.66683 13.5H7.3335C6.07245 13.5 5.16682 13.4993 4.46553 13.4233C3.77359 13.3484 3.34011 13.2049 3.00144 12.9589C2.7609 12.7841 2.54937 12.5726 2.37461 12.3321C2.12856 11.9934 1.98513 11.5599 1.91016 10.868C1.83418 10.1667 1.8335 9.26105 1.8335 8C1.8335 6.91763 1.83381 6.09496 1.88279 5.43516C1.90417 5.14723 1.93437 4.89924 1.9753 4.68225L2.95961 5.66655C4.04779 6.75475 4.90058 7.60754 5.65542 8.18347C6.42804 8.77296 7.15653 9.11929 8.00016 9.11929C8.8438 9.11929 9.57229 8.77296 10.3449 8.18347C11.0997 7.60755 11.9525 6.75476 13.0407 5.66657L14.025 4.68225Z" fill="white"/>
</svg>
