<svg viewBox="0 0 606.411 47.1946" xmlns="http://www.w3.org/2000/svg" xmlns:xlink="http://www.w3.org/1999/xlink" width="606.411133" height="47.194641" fill="none" customFrame="#000000">
	<defs>
		<g id="pixso_custom_effect_6">
			<effect x="1.231592" y="1.231592" visibility="visible" fill="rgb(0,0,0)" fill-opacity="0.25" effectType="dropShadow" stdDeviation="1.05916941" radius="0" />
		</g>
		<filter id="filter_6" width="606.411133" height="14.104065" x="0.000000" y="18.675903" filterUnits="userSpaceOnUse" customEffect="url(#pixso_custom_effect_6)" color-interpolation-filters="sRGB">
			<feFlood flood-opacity="0" result="BackgroundImageFix" />
			<feOffset dx="1.231592" dy="1.231592" in="SourceAlpha" />
			<feGaussianBlur stdDeviation="0.353056461" />
			<feColorMatrix type="matrix" values="0 0 0 0 0 0 0 0 0 0 0 0 0 0 0 0 0 0 0.25 0 " />
			<feBlend result="effect_dropShadow_1" in2="BackgroundImageFix" mode="normal" />
			<feBlend result="shape" in="SourceGraphic" in2="effect_dropShadow_1" mode="normal" />
		</filter>
		<g id="pixso_custom_effect_7">
			<effect x="-0.985274" y="-0.985274" visibility="visible" fill="rgb(0,0,0)" fill-opacity="0.529999971" effectType="dropShadow" stdDeviation="1.42864704" radius="0" />
		</g>
		<filter id="filter_7" width="109.032227" height="47.194641" x="246.646973" y="-0.000061" filterUnits="userSpaceOnUse" customEffect="url(#pixso_custom_effect_7)" color-interpolation-filters="sRGB">
			<feFlood flood-opacity="0" result="BackgroundImageFix" />
			<feColorMatrix result="hardAlpha" in="SourceAlpha" type="matrix" values="0 0 0 0 0 0 0 0 0 0 0 0 0 0 0 0 0 0 127 0 " />
			<feOffset dx="-0.985274" dy="-0.985274" in="hardAlpha" />
			<feGaussianBlur stdDeviation="0.47621569" />
			<feComposite k2="-1" k3="1" in2="hardAlpha" operator="out" />
			<feColorMatrix type="matrix" values="0 0 0 0 0 0 0 0 0 0 0 0 0 0 0 0 0 0 0.53 0 " />
			<feBlend result="effect_dropShadow_1" in2="BackgroundImageFix" mode="normal" />
			<feBlend result="shape" in="SourceGraphic" in2="effect_dropShadow_1" mode="normal" />
		</filter>
		<clipPath id="clipPath_0">
			<rect width="98.292992" height="36.455128" x="253.002441" y="6.355042" rx="4.926369" fill="rgb(255,255,255)" />
		</clipPath>
	</defs>
	<g id="Group 1966047452">
		<g filter="url(#filter_6)">
			<rect id="Rectangle 240648608" width="604.120728" height="11.813334" x="0.000488" y="18.675964" fill="rgb(40,41,52)" />
		</g>
		<rect id="Rectangle 240648609" width="604.120728" height="5.250370" x="0.000488" y="21.957458" fill="rgb(255,255,255)" />
		<g id="Frame 1321315293" filter="url(#filter_7)" customFrame="url(#clipPath_0)">
			<rect id="Frame 1321315293" width="98.292992" height="36.455128" x="253.002441" y="6.355042" rx="4.926369" fill="rgb(255,255,255)" />
			<rect id="Frame 1321315293" width="102.234085" height="40.396225" x="251.031891" y="4.384494" rx="4.926369" stroke="rgb(40,41,52)" stroke-width="3.94109535" />
			<path id="Curry" d="M276.08 31.7371C276.006 34.0852 275.236 36.1032 273.915 37.3139C272.741 38.4146 271.383 38.965 269.402 38.965C266.981 38.965 265.403 38.011 264.339 36.7269C262.614 34.6723 262.431 31.8105 262.431 25.6099C262.431 19.4094 262.614 16.5476 264.339 14.4929C265.403 13.2088 266.981 12.2549 269.402 12.2549C271.383 12.2549 272.814 12.8419 273.988 13.9426C275.309 15.1533 276.006 17.1346 276.08 19.446L271.97 19.446C271.934 18.4921 271.787 17.5382 271.347 16.9145C270.98 16.3274 270.393 15.9605 269.402 15.9605C268.411 15.9605 267.824 16.3641 267.458 16.9511C266.65 18.1986 266.54 20.8403 266.54 25.6099C266.54 30.3796 266.65 33.0212 267.458 34.2687C267.824 34.8557 268.411 35.2593 269.402 35.2593C270.393 35.2593 270.98 34.8924 271.347 34.3054C271.787 33.645 271.934 32.691 271.97 31.7371L276.08 31.7371ZM292.636 32.2507C292.636 34.232 291.976 35.883 290.839 37.0571C289.591 38.3412 287.94 38.965 285.996 38.965C284.051 38.965 282.363 38.3412 281.116 37.0571C279.978 35.883 279.318 34.232 279.318 32.2507L279.318 12.5484L283.427 12.5484L283.427 32.4709C283.427 34.3421 284.601 35.2593 285.996 35.2593C287.39 35.2593 288.527 34.3421 288.527 32.4709L288.527 12.5484L292.636 12.5484L292.636 32.2507ZM310.934 38.6714L306.641 38.6714L303.229 27.9581L300.917 27.9581L300.917 38.6714L296.808 38.6714L296.808 12.5484L303.412 12.5484C308.182 12.5484 310.09 14.8598 310.09 20.2532C310.09 23.4819 309.429 25.7934 307.045 27.0775L310.934 38.6714ZM305.981 20.2532C305.981 18.0885 305.65 16.254 303.449 16.254L300.917 16.254L300.917 24.2524L303.449 24.2524C305.65 24.2524 305.981 22.4179 305.981 20.2532ZM328.454 38.6714L324.162 38.6714L320.75 27.9581L318.438 27.9581L318.438 38.6714L314.329 38.6714L314.329 12.5484L320.933 12.5484C325.703 12.5484 327.611 14.8598 327.611 20.2532C327.611 23.4819 326.95 25.7934 324.565 27.0775L328.454 38.6714ZM323.501 20.2532C323.501 18.0885 323.171 16.254 320.97 16.254L318.438 16.254L318.438 24.2524L320.97 24.2524C323.171 24.2524 323.501 22.4179 323.501 20.2532ZM343.346 12.5484L338.283 28.435L338.283 38.6714L334.174 38.6714L334.174 28.435L329.111 12.5484L333.66 12.5484L336.229 22.8949L338.834 12.5484L343.346 12.5484Z" fill="rgb(40,41,52)" fill-rule="nonzero" />
		</g>
	</g>
</svg>
