<svg width="298" height="158" viewBox="0 0 298 158" fill="none" xmlns="http://www.w3.org/2000/svg">
<g filter="url(#filter0_ddddd_2515_75)">
<path d="M149 1.38477C74.8481 1.38477 16.2312 14.5174 5.00024 17.2082V111.587C16.2312 114.297 74.8481 127.43 149 127.43C223.152 127.43 281.769 114.297 293 111.607V17.2283C281.769 14.5174 223.152 1.38477 149 1.38477Z" fill="#282934"/>
<path d="M100.453 125.563V131.627C50.2642 127.912 13.6086 119.679 5.00024 117.631V111.566C13.6086 113.635 50.2442 121.868 100.453 125.563Z" fill="#FFDE14"/>
<path d="M292.998 111.566V117.631C284.39 119.679 247.754 127.932 197.546 131.627V125.563C247.754 121.848 284.39 113.615 292.998 111.566Z" fill="#1D1D1B"/>
<path d="M148.977 127.391C131.821 127.391 115.525 126.688 100.43 125.563V131.628C115.525 132.732 131.821 133.455 148.977 133.455C166.134 133.455 182.43 132.752 197.525 131.628V125.563C182.43 126.668 166.134 127.391 148.977 127.391Z" fill="#A81815"/>
<path d="M71.6003 67.812C72.6413 67.4103 73.4421 67.1091 74.2629 66.7276C78.8474 64.6995 81.1296 60.9846 80.529 56.5468C80.0285 52.6311 77.6662 50.2616 74.2429 48.7555C70.0989 46.9282 65.6746 46.386 61.1902 46.3258C60.5096 46.3258 59.8489 46.2856 59.1682 46.2856H33.9637V82.4908H49.5789V69.2377H57.6468L66.115 82.4908H81.8903C78.0466 77.0289 73.7224 70.824 71.6003 67.812ZM64.4133 60.6633C63.7327 63.334 61.8308 64.7798 59.1682 64.9404C58.8279 64.9806 58.1873 64.9806 57.4466 65.0007H49.5789V50.2817C49.5789 50.2817 56.6858 50.2817 57.887 50.3218C61.991 50.4222 64.3133 52.4504 64.7737 56.5669C64.9138 57.9122 64.7737 59.338 64.4133 60.6432" fill="white"/>
<path d="M96.9322 54.2964L101.757 53.8748V82.4895H88.6442V63.3728C88.6442 58.6539 92.2477 54.6981 96.9322 54.2964Z" fill="white"/>
<path d="M102.708 46.1239C102.708 48.7344 99.3248 50.8429 95.1808 50.8429C91.0367 50.8429 87.6534 48.7344 87.6534 46.1239C87.6534 43.5135 91.0167 41.405 95.1808 41.405C99.3448 41.405 102.708 43.5135 102.708 46.1239Z" fill="white"/>
<path d="M136.367 77.3094C136.367 76.2652 136.407 75.0604 136.367 73.8355V64.3575C136.367 60.502 133.244 57.3694 129.381 57.3694C125.517 57.3694 122.394 60.502 122.394 64.3575V82.4901H109.241V66.0442C109.241 59.0763 114.866 53.4136 121.833 53.4136H136.848C143.775 53.4136 149.4 59.016 149.44 65.9438V67.2491C149.44 74.0162 149.46 82.4901 149.46 82.4901H136.367V77.3094Z" fill="white"/>
<path d="M183.444 56.5061C181.822 55.7229 180.821 54.98 178.879 54.3776C175.756 53.4338 172.413 53.1928 169.19 53.5944C166.187 53.996 162.764 54.8394 160.341 56.7069C158.46 58.1527 157.178 60.221 156.518 62.5102C155.417 66.466 155.437 70.442 156.658 74.3978C157.739 77.932 160.121 80.2613 163.544 81.4461C165.066 81.9883 166.647 82.3899 168.229 82.5907C173.674 83.2734 178.959 83.2734 183.344 78.4742V82.4903C183.484 87.3497 180.081 89.7192 176.137 90.0405C172.293 90.3417 168.469 89.9401 164.766 88.7554C164.325 88.5947 163.985 88.4943 163.765 88.3738L162.964 88.0726L161.482 93.9361L162.664 94.3177C162.904 94.3779 163.364 94.5185 163.785 94.659C169.23 96.1852 174.855 96.5868 180.481 96.2454C184.425 95.9844 188.208 95.0406 191.612 92.8719C194.535 91.0245 196.497 86.2252 196.517 82.6107V53.9358L183.504 56.5061H183.444ZM183.264 72.1689C183.164 77.2693 176.737 80.9039 172.293 78.3537C171.052 77.6509 170.251 76.4059 169.771 75.0404C168.329 70.9641 168.489 66.0644 169.71 61.9479C170.411 59.5784 172.193 57.8314 174.655 57.4298C177.318 56.988 180.481 57.5302 182.423 59.5182C183.424 60.5623 183.324 62.3093 183.324 63.6748C183.284 66.5062 183.324 69.3375 183.264 72.1689Z" fill="white"/>
<path d="M230.564 74.2175C230.123 75.603 229.423 76.9083 228.282 77.832C227 78.836 225.359 79.2577 223.777 79.2577C216.31 79.2577 216.45 69.4785 216.45 69.4785H244.197C244.157 69.0769 244.157 68.6351 244.137 68.2335C243.977 66.4062 243.777 64.619 243.136 62.8921C242.495 61.2053 241.494 59.4583 240.133 58.1932C238.712 56.9483 237.17 56.0446 235.428 55.4021C227.861 52.6109 220.054 52.631 212.486 55.2013C204.278 57.9724 200.915 66.8078 204.619 74.6793C206.5 78.6352 209.824 80.6834 213.868 81.7276C220.234 83.3742 226.66 83.3541 233.086 81.9284C236.249 81.2256 239.172 79.84 241.394 77.3099C242.615 75.9243 243.476 74.3179 243.857 72.2898H231.044C231.004 72.7717 230.904 73.3339 230.604 74.2376M223.757 57.3499C231.264 57.3499 231.084 65.6431 231.084 65.6431H216.41C216.41 65.6431 216.27 57.3499 223.737 57.3499" fill="white"/>
<path d="M259.183 43.0128L264.008 42.5911V82.491H250.895V52.0891C250.895 47.3702 254.499 43.4344 259.183 43.0128Z" fill="white"/>
</g>
<defs>
<filter id="filter0_ddddd_2515_75" x="0.000244141" y="0.384766" width="298" height="157.07" filterUnits="userSpaceOnUse" color-interpolation-filters="sRGB">
<feFlood flood-opacity="0" result="BackgroundImageFix"/>
<feColorMatrix in="SourceAlpha" type="matrix" values="0 0 0 0 0 0 0 0 0 0 0 0 0 0 0 0 0 0 127 0" result="hardAlpha"/>
<feOffset dy="1"/>
<feGaussianBlur stdDeviation="1"/>
<feColorMatrix type="matrix" values="0 0 0 0 0 0 0 0 0 0 0 0 0 0 0 0 0 0 0.39 0"/>
<feBlend mode="normal" in2="BackgroundImageFix" result="effect1_dropShadow_2515_75"/>
<feColorMatrix in="SourceAlpha" type="matrix" values="0 0 0 0 0 0 0 0 0 0 0 0 0 0 0 0 0 0 127 0" result="hardAlpha"/>
<feOffset dy="3"/>
<feGaussianBlur stdDeviation="1.5"/>
<feColorMatrix type="matrix" values="0 0 0 0 0 0 0 0 0 0 0 0 0 0 0 0 0 0 0.34 0"/>
<feBlend mode="normal" in2="effect1_dropShadow_2515_75" result="effect2_dropShadow_2515_75"/>
<feColorMatrix in="SourceAlpha" type="matrix" values="0 0 0 0 0 0 0 0 0 0 0 0 0 0 0 0 0 0 127 0" result="hardAlpha"/>
<feOffset dy="7"/>
<feGaussianBlur stdDeviation="2"/>
<feColorMatrix type="matrix" values="0 0 0 0 0 0 0 0 0 0 0 0 0 0 0 0 0 0 0.2 0"/>
<feBlend mode="normal" in2="effect2_dropShadow_2515_75" result="effect3_dropShadow_2515_75"/>
<feColorMatrix in="SourceAlpha" type="matrix" values="0 0 0 0 0 0 0 0 0 0 0 0 0 0 0 0 0 0 127 0" result="hardAlpha"/>
<feOffset dy="12"/>
<feGaussianBlur stdDeviation="2.5"/>
<feColorMatrix type="matrix" values="0 0 0 0 0 0 0 0 0 0 0 0 0 0 0 0 0 0 0.06 0"/>
<feBlend mode="normal" in2="effect3_dropShadow_2515_75" result="effect4_dropShadow_2515_75"/>
<feColorMatrix in="SourceAlpha" type="matrix" values="0 0 0 0 0 0 0 0 0 0 0 0 0 0 0 0 0 0 127 0" result="hardAlpha"/>
<feOffset dy="19"/>
<feGaussianBlur stdDeviation="2.5"/>
<feColorMatrix type="matrix" values="0 0 0 0 0 0 0 0 0 0 0 0 0 0 0 0 0 0 0.01 0"/>
<feBlend mode="normal" in2="effect4_dropShadow_2515_75" result="effect5_dropShadow_2515_75"/>
<feBlend mode="normal" in="SourceGraphic" in2="effect5_dropShadow_2515_75" result="shape"/>
</filter>
</defs>
</svg>
