<svg width="227" height="125" viewBox="0 0 227 125" fill="none" xmlns="http://www.w3.org/2000/svg">
    <g filter="url(#filter0_ddddd_2010_1194)">
        <path
            d="M113.5 1.15982C57.6285 1.15982 13.4622 11.0549 5 13.0823V84.1939C13.4622 86.2364 57.6285 96.1315 113.5 96.1315C169.372 96.1315 213.538 86.2364 222 84.209V13.0975C213.538 11.0549 169.372 1.15982 113.5 1.15982Z"
            fill="#282934" />
        <path
            d="M76.921 94.7244V99.2937C39.1052 96.4947 11.4862 90.2913 5 88.748V84.1787C11.4862 85.7371 39.0901 91.9405 76.921 94.7244Z"
            fill="#FFDE14" />
        <path
            d="M221.999 84.1787V88.748C215.513 90.2913 187.909 96.5098 150.078 99.2937V94.7244C187.909 91.9254 215.513 85.722 221.999 84.1787Z"
            fill="#1D1D1B" />
        <path
            d="M113.483 96.1019C100.556 96.1019 88.2772 95.5723 76.9038 94.725V99.2943C88.2772 100.126 100.556 100.671 113.483 100.671C126.41 100.671 138.688 100.142 150.062 99.2943V94.725C138.688 95.5572 126.41 96.1019 113.483 96.1019Z"
            fill="#A81815" />
        <path
            d="M55.1814 51.2109C55.9657 50.9083 56.5691 50.6813 57.1876 50.3938C60.6418 48.8657 62.3614 46.0666 61.9089 42.7229C61.5318 39.7725 59.7519 37.9871 57.1725 36.8524C54.0501 35.4755 50.7165 35.067 47.3376 35.0216C46.8248 35.0216 46.327 34.9914 45.8141 34.9914H26.8232V62.271H38.5889V52.2851H44.6677L51.0483 62.271H62.9346C60.0385 58.1556 56.7803 53.4804 55.1814 51.2109ZM49.7662 45.8245C49.2533 47.8368 47.8203 48.9262 45.8141 49.0473C45.5577 49.0775 45.075 49.0775 44.5169 49.0926H38.5889V38.0023C38.5889 38.0023 43.9437 38.0023 44.8488 38.0325C47.941 38.1082 49.6908 39.6363 50.0377 42.738C50.1433 43.7517 50.0377 44.826 49.7662 45.8094"
            fill="white" />
        <path
            d="M74.2683 41.0271L77.9035 40.7094V62.2698H68.0234V47.866C68.0234 44.3104 70.7386 41.3297 74.2683 41.0271Z"
            fill="white" />
        <path
            d="M78.6201 34.8694C78.6201 36.8363 76.0709 38.425 72.9485 38.425C69.8261 38.425 67.2769 36.8363 67.2769 34.8694C67.2769 32.9025 69.811 31.3138 72.9485 31.3138C76.086 31.3138 78.6201 32.9025 78.6201 34.8694Z"
            fill="white" />
        <path
            d="M103.981 58.3667C103.981 57.5799 104.012 56.6721 103.981 55.7492V48.6078C103.981 45.7028 101.628 43.3425 98.7171 43.3425C95.8059 43.3425 93.4527 45.7028 93.4527 48.6078V62.2703H83.5425V49.8787C83.5425 44.6286 87.7811 40.3619 93.0304 40.3619H104.343C109.563 40.3619 113.801 44.5832 113.831 49.8031V50.7865C113.831 55.8854 113.846 62.2703 113.846 62.2703H103.981V58.3667Z"
            fill="white" />
        <path
            d="M139.452 42.692C138.231 42.1019 137.476 41.5421 136.013 41.0882C133.66 40.3771 131.141 40.1955 128.712 40.4981C126.45 40.8007 123.87 41.4362 122.045 42.8433C120.627 43.9327 119.662 45.4911 119.164 47.2159C118.335 50.1965 118.35 53.1923 119.27 56.1729C120.084 58.8358 121.879 60.5909 124.459 61.4836C125.605 61.8921 126.797 62.1947 127.988 62.346C132.091 62.8605 136.073 62.8604 139.377 59.2444V62.2704C139.483 65.9319 136.918 67.7172 133.947 67.9593C131.05 68.1862 128.169 67.8836 125.379 66.991C125.047 66.8699 124.791 66.7943 124.625 66.7035L124.021 66.4765L122.905 70.8945L123.795 71.182C123.976 71.2274 124.323 71.3333 124.64 71.4392C128.743 72.5891 132.981 72.8917 137.22 72.6345C140.191 72.4378 143.042 71.7267 145.607 70.0926C147.809 68.7007 149.287 65.0846 149.302 62.3612V40.7553L139.498 42.692H139.452ZM139.317 54.4935C139.241 58.3365 134.399 61.0751 131.05 59.1536C130.115 58.624 129.512 57.6859 129.15 56.6571C128.064 53.5857 128.185 49.8939 129.105 46.7923C129.633 45.0069 130.975 43.6906 132.83 43.388C134.837 43.0551 137.22 43.4636 138.683 44.9615C139.437 45.7483 139.362 47.0646 139.362 48.0935C139.332 50.2268 139.362 52.3601 139.317 54.4935Z"
            fill="white" />
        <path
            d="M174.956 56.0373C174.624 57.0812 174.096 58.0647 173.236 58.7607C172.271 59.5172 171.034 59.8349 169.842 59.8349C164.216 59.8349 164.322 52.4665 164.322 52.4665H185.228C185.198 52.1639 185.198 51.8311 185.183 51.5285C185.062 50.1516 184.911 48.8051 184.429 47.5039C183.946 46.2329 183.192 44.9166 182.166 43.9634C181.095 43.0254 179.934 42.3445 178.621 41.8603C172.92 39.7573 167.037 39.7724 161.335 41.709C155.15 43.797 152.616 50.4542 155.407 56.3853C156.825 59.3659 159.329 60.9092 162.376 61.6959C167.172 62.9366 172.014 62.9215 176.856 61.8472C179.24 61.3177 181.442 60.2737 183.116 58.3673C184.037 57.3233 184.685 56.1129 184.972 54.5848H175.318C175.288 54.9479 175.212 55.3715 174.986 56.0524M169.827 43.328C175.484 43.328 175.348 49.5767 175.348 49.5767H164.291C164.291 49.5767 164.186 43.328 169.812 43.328"
            fill="white" />
        <path d="M196.52 32.5251L200.155 32.2074V62.271H190.275V39.364C190.275 35.8084 192.99 32.8429 196.52 32.5251Z"
            fill="white" />
    </g>
    <defs>
        <filter id="filter0_ddddd_2010_1194" x="0" y="0.159821" width="227" height="124.511"
            filterUnits="userSpaceOnUse" color-interpolation-filters="sRGB">
            <feFlood flood-opacity="0" result="BackgroundImageFix" />
            <feColorMatrix in="SourceAlpha" type="matrix" values="0 0 0 0 0 0 0 0 0 0 0 0 0 0 0 0 0 0 127 0"
                result="hardAlpha" />
            <feOffset dy="1" />
            <feGaussianBlur stdDeviation="1" />
            <feColorMatrix type="matrix" values="0 0 0 0 0 0 0 0 0 0 0 0 0 0 0 0 0 0 0.39 0" />
            <feBlend mode="normal" in2="BackgroundImageFix" result="effect1_dropShadow_2010_1194" />
            <feColorMatrix in="SourceAlpha" type="matrix" values="0 0 0 0 0 0 0 0 0 0 0 0 0 0 0 0 0 0 127 0"
                result="hardAlpha" />
            <feOffset dy="3" />
            <feGaussianBlur stdDeviation="1.5" />
            <feColorMatrix type="matrix" values="0 0 0 0 0 0 0 0 0 0 0 0 0 0 0 0 0 0 0.34 0" />
            <feBlend mode="normal" in2="effect1_dropShadow_2010_1194" result="effect2_dropShadow_2010_1194" />
            <feColorMatrix in="SourceAlpha" type="matrix" values="0 0 0 0 0 0 0 0 0 0 0 0 0 0 0 0 0 0 127 0"
                result="hardAlpha" />
            <feOffset dy="7" />
            <feGaussianBlur stdDeviation="2" />
            <feColorMatrix type="matrix" values="0 0 0 0 0 0 0 0 0 0 0 0 0 0 0 0 0 0 0.2 0" />
            <feBlend mode="normal" in2="effect2_dropShadow_2010_1194" result="effect3_dropShadow_2010_1194" />
            <feColorMatrix in="SourceAlpha" type="matrix" values="0 0 0 0 0 0 0 0 0 0 0 0 0 0 0 0 0 0 127 0"
                result="hardAlpha" />
            <feOffset dy="12" />
            <feGaussianBlur stdDeviation="2.5" />
            <feColorMatrix type="matrix" values="0 0 0 0 0 0 0 0 0 0 0 0 0 0 0 0 0 0 0.06 0" />
            <feBlend mode="normal" in2="effect3_dropShadow_2010_1194" result="effect4_dropShadow_2010_1194" />
            <feColorMatrix in="SourceAlpha" type="matrix" values="0 0 0 0 0 0 0 0 0 0 0 0 0 0 0 0 0 0 127 0"
                result="hardAlpha" />
            <feOffset dy="19" />
            <feGaussianBlur stdDeviation="2.5" />
            <feColorMatrix type="matrix" values="0 0 0 0 0 0 0 0 0 0 0 0 0 0 0 0 0 0 0.01 0" />
            <feBlend mode="normal" in2="effect4_dropShadow_2010_1194" result="effect5_dropShadow_2010_1194" />
            <feBlend mode="normal" in="SourceGraphic" in2="effect5_dropShadow_2010_1194" result="shape" />
        </filter>
    </defs>
</svg>
