<svg display="none" xmlns="http://www.w3.org/2000/svg" aria-hidden="true"
    style="position: absolute; width: 0; height: 0; overflow: hidden;" version="1.1">
    <symbol id="search" viewBox="0 0 23 23">
        <path
            d="M10 0.25C4.61522 0.25 0.25 4.61522 0.25 10C0.25 15.3848 4.61522 19.75 10 19.75C15.3848 19.75 19.75 15.3848 19.75 10C19.75 4.61522 15.3848 0.25 10 0.25ZM1.75 10C1.75 5.44365 5.44365 1.75 10 1.75C14.5563 1.75 18.25 5.44365 18.25 10C18.25 14.5563 14.5563 18.25 10 18.25C5.44365 18.25 1.75 14.5563 1.75 10Z" />
        <path
            d="M18.5304 17.4698C18.2375 17.1769 17.7626 17.1769 17.4697 17.4698C17.1768 17.7626 17.1768 18.2375 17.4697 18.5304L21.4696 22.5304C21.7625 22.8233 22.2374 22.8233 22.5303 22.5304C22.8232 22.2375 22.8232 21.7626 22.5303 21.4697L18.5304 17.4698Z" />
    </symbol>

    <symbol id="basket" viewBox="0 0 24 24">
        <path
            d="M10.9172 19.2727C11.7245 19.2727 12.3798 19.928 12.3798 20.7353C12.3798 21.5425 11.7245 22.1978 10.9172 22.1978C10.11 22.1978 9.45469 21.5425 9.45469 20.7353C9.45469 19.928 10.11 19.2727 10.9172 19.2727ZM17.2787 19.2727C18.086 19.2727 18.7412 19.928 18.7412 20.7353C18.7412 21.5425 18.086 22.1978 17.2787 22.1978C16.4714 22.1978 15.8161 21.5425 15.8161 20.7353C15.8161 19.928 16.4714 19.2727 17.2787 19.2727ZM1.20597 4.66254H3.27215C3.67433 4.66254 4.02778 4.93091 4.13542 5.31927C4.13542 5.31927 4.13615 5.31927 4.13615 5.32C4.83215 7.82545 6.33615 13.2393 7.03506 15.7542C7.36306 16.936 8.43942 17.7535 9.66488 17.7535H18.4954C19.7485 17.7535 20.8409 16.9004 21.1441 15.6844C21.7594 13.2255 22.9812 8.33745 22.9812 8.33745C23.0489 8.06618 22.9878 7.77818 22.8154 7.55782C22.6431 7.33672 22.3791 7.208 22.0991 7.208H9.45469C8.95288 7.208 8.5456 7.61527 8.5456 8.11709C8.5456 8.61891 8.95288 9.02618 9.45469 9.02618H20.9347L19.3798 15.2451C19.2787 15.6509 18.9136 15.9353 18.4954 15.9353H9.66488C9.25542 15.9353 8.89615 15.6618 8.78633 15.2676C8.08742 12.7527 6.58342 7.33818 5.88742 4.83272C5.56233 3.65818 4.49178 2.84436 3.27215 2.84436H1.20597C0.704148 2.84436 0.296875 3.25163 0.296875 3.75345C0.296875 4.25527 0.704148 4.66254 1.20597 4.66254Z" />
    </symbol>

    <symbol id="close" viewBox="0 0 16 17">
        <path
            d="M15.5304 2.03033C15.8232 1.73744 15.8232 1.26256 15.5304 0.96967C15.2375 0.676777 14.7626 0.676777 14.4697 0.96967L8.00001 7.43935L1.53033 0.969673C1.23744 0.67678 0.762563 0.67678 0.46967 0.969673C0.176777 1.26257 0.176777 1.73744 0.46967 2.03033L6.93935 8.50001L0.469697 14.9697C0.176804 15.2626 0.176804 15.7374 0.469697 16.0303C0.76259 16.3232 1.23746 16.3232 1.53036 16.0303L8.00001 9.56067L14.4697 16.0303C14.7626 16.3232 15.2374 16.3232 15.5303 16.0303C15.8232 15.7374 15.8232 15.2626 15.5303 14.9697L9.06067 8.50002L15.5304 2.03033Z" />
    </symbol>

    <symbol id="mobileButton" viewBox="0 0 18 18">
        <path 
            d="M5.14537 0.270771C4.84076 0.249987 4.46972 0.249993 4.02527 0.25H3.97475C3.53029 0.249993 3.15925 0.249987 2.85464 0.270771C2.53754 0.292406 2.23801 0.339049 1.94762 0.459332C1.27379 0.73844 0.73844 1.27379 0.459332 1.94762C0.339049 2.23801 0.292406 2.53754 0.270771 2.85464C0.249987 3.15925 0.249993 3.53028 0.25 3.97474V4.02525C0.249993 4.46971 0.249987 4.84076 0.270771 5.14537C0.292406 5.46247 0.339049 5.76199 0.459332 6.05238C0.73844 6.72621 1.27379 7.26156 1.94762 7.54067C2.23801 7.66095 2.53754 7.7076 2.85464 7.72923C3.15925 7.75001 3.53028 7.75001 3.97474 7.75H4.02526C4.46972 7.75001 4.84075 7.75001 5.14537 7.72923C5.46247 7.7076 5.76199 7.66095 6.05238 7.54067C6.72621 7.26156 7.26156 6.72621 7.54067 6.05238C7.66095 5.76199 7.7076 5.46247 7.72923 5.14537C7.75001 4.84075 7.75001 4.46972 7.75 4.02526V3.97474C7.75001 3.53028 7.75001 3.15925 7.72923 2.85464C7.7076 2.53754 7.66095 2.23801 7.54067 1.94762C7.26156 1.27379 6.72621 0.73844 6.05238 0.459332C5.76199 0.339049 5.46247 0.292406 5.14537 0.270771ZM2.52165 1.84515C2.5988 1.81319 2.71602 1.78372 2.95674 1.76729C3.20421 1.75041 3.5238 1.75 4 1.75C4.4762 1.75 4.7958 1.75041 5.04326 1.76729C5.28399 1.78372 5.4012 1.81319 5.47836 1.84515C5.78464 1.97202 6.02798 2.21536 6.15485 2.52165C6.18681 2.5988 6.21629 2.71602 6.23271 2.95674C6.24959 3.20421 6.25 3.5238 6.25 4C6.25 4.4762 6.24959 4.7958 6.23271 5.04326C6.21629 5.28399 6.18681 5.4012 6.15485 5.47836C6.02798 5.78464 5.78464 6.02798 5.47836 6.15485C5.4012 6.18681 5.28399 6.21629 5.04326 6.23271C4.7958 6.24959 4.4762 6.25 4 6.25C3.5238 6.25 3.20421 6.24959 2.95674 6.23271C2.71602 6.21629 2.5988 6.18681 2.52165 6.15485C2.21536 6.02798 1.97202 5.78464 1.84515 5.47836C1.81319 5.4012 1.78372 5.28399 1.76729 5.04326C1.75041 4.7958 1.75 4.4762 1.75 4C1.75 3.5238 1.75041 3.20421 1.76729 2.95674C1.78372 2.71602 1.81319 2.5988 1.84515 2.52165C1.97202 2.21536 2.21536 1.97202 2.52165 1.84515Z" />
        <path 
            d="M15.1454 0.270771C14.8408 0.249987 14.4697 0.249993 14.0253 0.25H13.9748C13.5303 0.249993 13.1592 0.249987 12.8546 0.270771C12.5375 0.292406 12.238 0.339049 11.9476 0.459332C11.2738 0.73844 10.7384 1.27379 10.4593 1.94762C10.339 2.23801 10.2924 2.53754 10.2708 2.85464C10.25 3.15925 10.25 3.53028 10.25 3.97474V4.02526C10.25 4.46972 10.25 4.84075 10.2708 5.14537C10.2924 5.46247 10.339 5.76199 10.4593 6.05238C10.7384 6.72621 11.2738 7.26156 11.9476 7.54067C12.238 7.66095 12.5375 7.7076 12.8546 7.72923C13.1592 7.75001 13.5303 7.75001 13.9747 7.75H14.0253C14.4697 7.75001 14.8408 7.75001 15.1454 7.72923C15.4625 7.7076 15.762 7.66095 16.0524 7.54067C16.7262 7.26156 17.2616 6.72621 17.5407 6.05238C17.661 5.76199 17.7076 5.46247 17.7292 5.14537C17.75 4.84075 17.75 4.46972 17.75 4.02526V3.97474C17.75 3.53028 17.75 3.15925 17.7292 2.85464C17.7076 2.53754 17.661 2.23801 17.5407 1.94762C17.2616 1.27379 16.7262 0.73844 16.0524 0.459332C15.762 0.339049 15.4625 0.292406 15.1454 0.270771ZM12.5216 1.84515C12.5988 1.81319 12.716 1.78372 12.9567 1.76729C13.2042 1.75041 13.5238 1.75 14 1.75C14.4762 1.75 14.7958 1.75041 15.0433 1.76729C15.284 1.78372 15.4012 1.81319 15.4784 1.84515C15.7846 1.97202 16.028 2.21536 16.1549 2.52165C16.1868 2.5988 16.2163 2.71602 16.2327 2.95674C16.2496 3.20421 16.25 3.5238 16.25 4C16.25 4.4762 16.2496 4.7958 16.2327 5.04326C16.2163 5.28399 16.1868 5.4012 16.1549 5.47836C16.028 5.78464 15.7846 6.02798 15.4784 6.15485C15.4012 6.18681 15.284 6.21629 15.0433 6.23271C14.7958 6.24959 14.4762 6.25 14 6.25C13.5238 6.25 13.2042 6.24959 12.9567 6.23271C12.716 6.21629 12.5988 6.18681 12.5216 6.15485C12.2154 6.02798 11.972 5.78464 11.8452 5.47836C11.8132 5.4012 11.7837 5.28399 11.7673 5.04326C11.7504 4.7958 11.75 4.4762 11.75 4C11.75 3.5238 11.7504 3.20421 11.7673 2.95674C11.7837 2.71602 11.8132 2.5988 11.8452 2.52165C11.972 2.21536 12.2154 1.97202 12.5216 1.84515Z" />
        <path 
            d="M5.14537 10.2708C4.84075 10.25 4.46972 10.25 4.02526 10.25H3.97474C3.53028 10.25 3.15925 10.25 2.85464 10.2708C2.53754 10.2924 2.23801 10.339 1.94762 10.4593C1.27379 10.7384 0.73844 11.2738 0.459332 11.9476C0.339049 12.238 0.292406 12.5375 0.270771 12.8546C0.249987 13.1592 0.249993 13.5303 0.25 13.9747V14.0253C0.249993 14.4697 0.249987 14.8408 0.270771 15.1454C0.292406 15.4625 0.339049 15.762 0.459332 16.0524C0.73844 16.7262 1.27379 17.2616 1.94762 17.5407C2.23801 17.661 2.53754 17.7076 2.85464 17.7292C3.15925 17.75 3.53028 17.75 3.97474 17.75H4.02526C4.46972 17.75 4.84075 17.75 5.14537 17.7292C5.46247 17.7076 5.76199 17.661 6.05238 17.5407C6.72621 17.2616 7.26156 16.7262 7.54067 16.0524C7.66095 15.762 7.7076 15.4625 7.72923 15.1454C7.75001 14.8408 7.75001 14.4697 7.75 14.0253V13.9747C7.75001 13.5303 7.75001 13.1592 7.72923 12.8546C7.7076 12.5375 7.66095 12.238 7.54067 11.9476C7.26156 11.2738 6.72621 10.7384 6.05238 10.4593C5.76199 10.339 5.46247 10.2924 5.14537 10.2708ZM2.52165 11.8452C2.5988 11.8132 2.71602 11.7837 2.95674 11.7673C3.20421 11.7504 3.5238 11.75 4 11.75C4.4762 11.75 4.7958 11.7504 5.04326 11.7673C5.28399 11.7837 5.4012 11.8132 5.47836 11.8452C5.78464 11.972 6.02798 12.2154 6.15485 12.5216C6.18681 12.5988 6.21629 12.716 6.23271 12.9567C6.24959 13.2042 6.25 13.5238 6.25 14C6.25 14.4762 6.24959 14.7958 6.23271 15.0433C6.21629 15.284 6.18681 15.4012 6.15485 15.4784C6.02798 15.7846 5.78464 16.028 5.47836 16.1549C5.4012 16.1868 5.28399 16.2163 5.04326 16.2327C4.7958 16.2496 4.4762 16.25 4 16.25C3.5238 16.25 3.20421 16.2496 2.95674 16.2327C2.71602 16.2163 2.5988 16.1868 2.52165 16.1549C2.21536 16.028 1.97202 15.7846 1.84515 15.4784C1.81319 15.4012 1.78372 15.284 1.76729 15.0433C1.75041 14.7958 1.75 14.4762 1.75 14C1.75 13.5238 1.75041 13.2042 1.76729 12.9567C1.78372 12.716 1.81319 12.5988 1.84515 12.5216C1.97202 12.2154 2.21536 11.972 2.52165 11.8452Z" />
        <path 
            d="M15.1454 10.2708C14.8408 10.25 14.4697 10.25 14.0253 10.25H13.9747C13.5303 10.25 13.1592 10.25 12.8546 10.2708C12.5375 10.2924 12.238 10.339 11.9476 10.4593C11.2738 10.7384 10.7384 11.2738 10.4593 11.9476C10.339 12.238 10.2924 12.5375 10.2708 12.8546C10.25 13.1592 10.25 13.5303 10.25 13.9747V14.0253C10.25 14.4697 10.25 14.8408 10.2708 15.1454C10.2924 15.4625 10.339 15.762 10.4593 16.0524C10.7384 16.7262 11.2738 17.2616 11.9476 17.5407C12.238 17.661 12.5375 17.7076 12.8546 17.7292C13.1592 17.75 13.5303 17.75 13.9747 17.75H14.0253C14.4697 17.75 14.8408 17.75 15.1454 17.7292C15.4625 17.7076 15.762 17.661 16.0524 17.5407C16.7262 17.2616 17.2616 16.7262 17.5407 16.0524C17.661 15.762 17.7076 15.4625 17.7292 15.1454C17.75 14.8408 17.75 14.4697 17.75 14.0253V13.9747C17.75 13.5303 17.75 13.1592 17.7292 12.8546C17.7076 12.5375 17.661 12.238 17.5407 11.9476C17.2616 11.2738 16.7262 10.7384 16.0524 10.4593C15.762 10.339 15.4625 10.2924 15.1454 10.2708ZM12.5216 11.8452C12.5988 11.8132 12.716 11.7837 12.9567 11.7673C13.2042 11.7504 13.5238 11.75 14 11.75C14.4762 11.75 14.7958 11.7504 15.0433 11.7673C15.284 11.7837 15.4012 11.8132 15.4784 11.8452C15.7846 11.972 16.028 12.2154 16.1549 12.5216C16.1868 12.5988 16.2163 12.716 16.2327 12.9567C16.2496 13.2042 16.25 13.5238 16.25 14C16.25 14.4762 16.2496 14.7958 16.2327 15.0433C16.2163 15.284 16.1868 15.4012 16.1549 15.4784C16.028 15.7846 15.7846 16.028 15.4784 16.1549C15.4012 16.1868 15.284 16.2163 15.0433 16.2327C14.7958 16.2496 14.4762 16.25 14 16.25C13.5238 16.25 13.2042 16.2496 12.9567 16.2327C12.716 16.2163 12.5988 16.1868 12.5216 16.1549C12.2154 16.028 11.972 15.7846 11.8452 15.4784C11.8132 15.4012 11.7837 15.284 11.7673 15.0433C11.7504 14.7958 11.75 14.4762 11.75 14C11.75 13.5238 11.7504 13.2042 11.7673 12.9567C11.7837 12.716 11.8132 12.5988 11.8452 12.5216C11.972 12.2154 12.2154 11.972 12.5216 11.8452Z" />
    </symbol>
</svg>