<svg display="none" xmlns="http://www.w3.org/2000/svg" aria-hidden="true"
    style="position: absolute; width: 0; height: 0; overflow: hidden;" version="1.1">

    <symbol id="trash" viewBox="0 0 24 24">
        <path d="M12 1.25C9.37665 1.25 7.25 3.37665 7.25 6V6.25H4C3.58579 6.25 3.25 6.58579 3.25 7C3.25 7.41421 3.58579 7.75 4 7.75H20C20.4142 7.75 20.75 7.41421 20.75 7C20.75 6.58579 20.4142 6.25 20 6.25H16.75V6C16.75 3.37665 14.6234 1.25 12 1.25ZM12 2.75C13.7949 2.75 15.25 4.20507 15.25 6V6.25H8.75V6C8.75 4.20507 10.2051 2.75 12 2.75Z" />
        <path d="M5.74664 8.92906C5.70746 8.5167 5.34142 8.21418 4.92906 8.25336C4.5167 8.29254 4.21418 8.65858 4.25336 9.07094C4.34783 10.0652 4.51833 11.2903 4.73748 12.8651L5.01903 14.8881C5.28819 16.8229 5.44085 17.9201 5.77109 18.819C6.3857 20.4918 7.48205 21.8328 8.89206 22.4278C9.65773 22.7509 10.5335 22.7506 11.8373 22.75H12.1627C13.4665 22.7506 14.3423 22.7509 15.1079 22.4278C16.5179 21.8328 17.6143 20.4918 18.2289 18.819C18.5592 17.9201 18.7118 16.8229 18.981 14.8881L19.2625 12.8651C19.4817 11.2903 19.6522 10.0652 19.7466 9.07094C19.7858 8.65858 19.4833 8.29254 19.0709 8.25336C18.6586 8.21418 18.2925 8.5167 18.2534 8.92906C18.1623 9.88702 17.9965 11.08 17.7744 12.6761L17.512 14.5611C17.2215 16.6488 17.0884 17.5736 16.8209 18.3017C16.305 19.7058 15.4472 20.6566 14.5248 21.0458C14.0746 21.2358 13.5292 21.25 12 21.25C10.4708 21.25 9.92544 21.2358 9.47524 21.0458C8.55279 20.6566 7.69496 19.7058 7.17907 18.3017C6.91156 17.5736 6.77851 16.6488 6.48798 14.5611L6.22564 12.6761C6.00352 11.08 5.83766 9.88703 5.74664 8.92906Z" />

    </symbol>
    <symbol id="successMark" viewBox="0 0 78 78">
          <path d="M61.199 8.61267C60.2723 7.68428 58.7685 7.68268 57.8417 8.60873L29.3572 37.018L19.0801 25.8561C18.1921 24.8921 16.6907 24.8296 15.7251 25.7175C14.7603 26.6056 14.6985 28.1077 15.5866 29.0725L27.5376 42.0516C27.9753 42.5273 28.5878 42.8036 29.2337 42.817C29.251 42.8177 29.2678 42.8177 29.2844 42.8177C29.912 42.8177 30.5158 42.5684 30.9606 42.1252L61.1944 11.9707C62.1235 11.0448 62.1251 9.54106 61.199 8.61267Z" />
          <path d="M60.6256 29.1256C59.3141 29.1256 58.2513 30.1884 58.2513 31.5C58.2513 46.2512 46.2512 58.2513 31.5 58.2513C16.7496 58.2513 4.74875 46.2512 4.74875 31.5C4.74875 16.7496 16.7496 4.74875 31.5 4.74875C32.8114 4.74875 33.8744 3.68587 33.8744 2.37444C33.8744 1.06288 32.8114 0 31.5 0C14.1307 0 0 14.1307 0 31.5C0 48.8686 14.1307 63 31.5 63C48.8686 63 63 48.8686 63 31.5C63 30.1886 61.9371 29.1256 60.6256 29.1256Z" />
    </symbol>
    <symbol id="fileLoad" viewBox="0 0 24 23">
      <path d="M21.7527 2.38604C18.7616 -0.605242 13.8943 -0.605242 10.9027 2.38604L1.6023 11.6864C-0.534217 13.8231 -0.534076 17.2998 1.60258 19.4364C2.671 20.5048 4.07397 21.039 5.4775 21.0389C6.88066 21.0387 8.28438 20.5047 9.35261 19.4364L17.8777 10.9111C18.4988 10.2901 18.8409 9.4644 18.841 8.58615C18.841 7.70785 18.499 6.88219 17.8778 6.26101C16.5957 4.97902 14.5096 4.97907 13.2277 6.26124L7.65264 11.8362C7.22463 12.2641 7.22463 12.9581 7.65255 13.3862C8.08052 13.8143 8.7745 13.8142 9.20256 13.3862L14.7777 7.81121C15.205 7.38385 15.9003 7.38376 16.3277 7.81112C16.5347 8.01812 16.6488 8.29337 16.6488 8.5861C16.6488 8.87884 16.5348 9.15399 16.3277 9.36108L7.8026 17.8863C6.52052 19.1683 4.43458 19.1685 3.1526 17.8864C1.87061 16.6043 1.87052 14.5183 3.15236 13.2362L12.4527 3.93605C14.5895 1.7993 18.0662 1.7993 20.2027 3.93605C21.2379 4.97105 21.808 6.34726 21.808 7.81102C21.808 9.27479 21.2378 10.651 20.2027 11.6861L10.9025 20.9866C10.4746 21.4146 10.4746 22.1085 10.9026 22.5366C11.1167 22.7506 11.3972 22.8576 11.6776 22.8576C11.9581 22.8576 12.2386 22.7505 12.4526 22.5366L21.7527 13.2361C23.2019 11.7871 23.9999 9.86044 24 7.81107C24 5.76174 23.2019 3.83509 21.7527 2.38604Z"/>
    </symbol>
    <symbol id="starForm" viewBox="0 0 33 33">
      <svg width="33" height="33" viewBox="0 0 33 33" fill="none" xmlns="http://www.w3.org/2000/svg">
      <path d="M16.6807 1.9104L21.1416 10.9495L21.374 11.4211L21.8945 11.4963L31.8682 12.9436V12.9446C31.9286 12.9534 31.979 12.9958 31.998 13.054C32.0156 13.1079 32.0027 13.1713 31.9551 13.218L24.7402 20.2512L24.3643 20.6184L24.4531 21.136L26.1572 31.0735C26.167 31.1331 26.1427 31.1932 26.0938 31.2288L26.0928 31.2297C26.0679 31.2479 26.0356 31.259 26.001 31.259C25.9758 31.259 25.9509 31.2522 25.9287 31.2405H25.9268L17.0029 26.5491L16.5381 26.304L16.0723 26.5491L7.14941 31.2395L7.14648 31.2405C7.09512 31.2677 7.03198 31.2635 6.98438 31.2288L6.98242 31.2278L6.9502 31.1965C6.92332 31.162 6.91171 31.117 6.91895 31.0725L8.62305 21.135L8.71191 20.6174L8.33594 20.2502L1.11719 13.2161C1.07262 13.1717 1.05991 13.1077 1.07715 13.0549C1.09642 12.9961 1.14773 12.9532 1.20703 12.9446L1.20605 12.9436L11.1807 11.4963L11.7012 11.4211L11.9346 10.9495L16.3945 1.90942C16.3966 1.90767 16.4016 1.90472 16.4092 1.90063C16.4336 1.88749 16.4792 1.87329 16.5381 1.87329C16.5967 1.87336 16.6417 1.88753 16.666 1.90063C16.6741 1.905 16.6788 1.90875 16.6807 1.9104Z" stroke="#282934" stroke-width="2"/>
      </svg>
    </symbol>
    <symbol id="checkMarck" viewBox="0 0 24 24">
        <path d="M20.5762 7.48016C20.8414 7.16195 20.7984 6.68903 20.4802 6.42385C20.1619 6.15868 19.689 6.20167 19.4239 6.51988L14.0332 12.9887C12.9503 14.2881 12.1886 15.1994 11.5279 15.796C10.8826 16.3787 10.4373 16.5639 10 16.5639C9.56276 16.5639 9.11742 16.3787 8.47213 15.796C7.81143 15.1994 7.04969 14.2881 5.96686 12.9887L4.57618 11.3199C4.31101 11.0017 3.83809 10.9587 3.51988 11.2239C3.20167 11.489 3.15868 11.9619 3.42385 12.2802L4.85312 13.9953C5.88839 15.2376 6.71748 16.2326 7.46684 16.9092C8.24089 17.6082 9.03216 18.0639 10 18.0639C10.9679 18.0639 11.7591 17.6082 12.5332 16.9092C13.2826 16.2326 14.1116 15.2377 15.1469 13.9953L20.5762 7.48016Z" fill="#FFDE14"/>
    </symbol>
    <symbol id="star" viewBox="0 0 17 18">
        <path
            d="M16.7597 7.16412L13.0612 10.7694L13.9346 15.8614C13.9726 16.084 13.8812 16.3091 13.6983 16.4421C13.595 16.5175 13.4721 16.5555 13.3492 16.5555C13.2548 16.5555 13.1598 16.5329 13.0731 16.4872L8.50003 14.0831L3.92756 16.4866C3.72806 16.5923 3.48522 16.5751 3.30234 16.4415C3.11947 16.3085 3.02803 16.0834 3.06603 15.8608L3.93944 10.7688L0.240376 7.16412C0.0788759 7.00619 0.0200946 6.76987 0.0901571 6.55553C0.16022 6.34119 0.346063 6.18384 0.569907 6.15119L5.6815 5.409L7.96744 0.776561C8.16753 0.371029 8.83253 0.371029 9.03263 0.776561L11.3186 5.409L16.4302 6.15119C16.654 6.18384 16.8398 6.34059 16.9099 6.55553C16.98 6.77047 16.9212 7.00559 16.7597 7.16412Z" />
    </symbol>

    <symbol id="search" viewBox="0 0 23 23">
        <path
            d="M10 0.25C4.61522 0.25 0.25 4.61522 0.25 10C0.25 15.3848 4.61522 19.75 10 19.75C15.3848 19.75 19.75 15.3848 19.75 10C19.75 4.61522 15.3848 0.25 10 0.25ZM1.75 10C1.75 5.44365 5.44365 1.75 10 1.75C14.5563 1.75 18.25 5.44365 18.25 10C18.25 14.5563 14.5563 18.25 10 18.25C5.44365 18.25 1.75 14.5563 1.75 10Z" />
        <path
            d="M18.5304 17.4698C18.2375 17.1769 17.7626 17.1769 17.4697 17.4698C17.1768 17.7626 17.1768 18.2375 17.4697 18.5304L21.4696 22.5304C21.7625 22.8233 22.2374 22.8233 22.5303 22.5304C22.8232 22.2375 22.8232 21.7626 22.5303 21.4697L18.5304 17.4698Z" />
    </symbol>

    <symbol id="basket" viewBox="0 0 24 24">
        <path
            d="M10.9172 19.2727C11.7245 19.2727 12.3798 19.928 12.3798 20.7353C12.3798 21.5425 11.7245 22.1978 10.9172 22.1978C10.11 22.1978 9.45469 21.5425 9.45469 20.7353C9.45469 19.928 10.11 19.2727 10.9172 19.2727ZM17.2787 19.2727C18.086 19.2727 18.7412 19.928 18.7412 20.7353C18.7412 21.5425 18.086 22.1978 17.2787 22.1978C16.4714 22.1978 15.8161 21.5425 15.8161 20.7353C15.8161 19.928 16.4714 19.2727 17.2787 19.2727ZM1.20597 4.66254H3.27215C3.67433 4.66254 4.02778 4.93091 4.13542 5.31927C4.13542 5.31927 4.13615 5.31927 4.13615 5.32C4.83215 7.82545 6.33615 13.2393 7.03506 15.7542C7.36306 16.936 8.43942 17.7535 9.66488 17.7535H18.4954C19.7485 17.7535 20.8409 16.9004 21.1441 15.6844C21.7594 13.2255 22.9812 8.33745 22.9812 8.33745C23.0489 8.06618 22.9878 7.77818 22.8154 7.55782C22.6431 7.33672 22.3791 7.208 22.0991 7.208H9.45469C8.95288 7.208 8.5456 7.61527 8.5456 8.11709C8.5456 8.61891 8.95288 9.02618 9.45469 9.02618H20.9347L19.3798 15.2451C19.2787 15.6509 18.9136 15.9353 18.4954 15.9353H9.66488C9.25542 15.9353 8.89615 15.6618 8.78633 15.2676C8.08742 12.7527 6.58342 7.33818 5.88742 4.83272C5.56233 3.65818 4.49178 2.84436 3.27215 2.84436H1.20597C0.704148 2.84436 0.296875 3.25163 0.296875 3.75345C0.296875 4.25527 0.704148 4.66254 1.20597 4.66254Z" />
    </symbol>

    <symbol id="close" viewBox="0 0 16 17">
        <path
            d="M15.5304 2.03033C15.8232 1.73744 15.8232 1.26256 15.5304 0.96967C15.2375 0.676777 14.7626 0.676777 14.4697 0.96967L8.00001 7.43935L1.53033 0.969673C1.23744 0.67678 0.762563 0.67678 0.46967 0.969673C0.176777 1.26257 0.176777 1.73744 0.46967 2.03033L6.93935 8.50001L0.469697 14.9697C0.176804 15.2626 0.176804 15.7374 0.469697 16.0303C0.76259 16.3232 1.23746 16.3232 1.53036 16.0303L8.00001 9.56067L14.4697 16.0303C14.7626 16.3232 15.2374 16.3232 15.5303 16.0303C15.8232 15.7374 15.8232 15.2626 15.5303 14.9697L9.06067 8.50002L15.5304 2.03033Z" />
    </symbol>

    <symbol id="mobileButton" viewBox="0 0 18 18">
        <path
            d="M5.14537 0.270771C4.84076 0.249987 4.46972 0.249993 4.02527 0.25H3.97475C3.53029 0.249993 3.15925 0.249987 2.85464 0.270771C2.53754 0.292406 2.23801 0.339049 1.94762 0.459332C1.27379 0.73844 0.73844 1.27379 0.459332 1.94762C0.339049 2.23801 0.292406 2.53754 0.270771 2.85464C0.249987 3.15925 0.249993 3.53028 0.25 3.97474V4.02525C0.249993 4.46971 0.249987 4.84076 0.270771 5.14537C0.292406 5.46247 0.339049 5.76199 0.459332 6.05238C0.73844 6.72621 1.27379 7.26156 1.94762 7.54067C2.23801 7.66095 2.53754 7.7076 2.85464 7.72923C3.15925 7.75001 3.53028 7.75001 3.97474 7.75H4.02526C4.46972 7.75001 4.84075 7.75001 5.14537 7.72923C5.46247 7.7076 5.76199 7.66095 6.05238 7.54067C6.72621 7.26156 7.26156 6.72621 7.54067 6.05238C7.66095 5.76199 7.7076 5.46247 7.72923 5.14537C7.75001 4.84075 7.75001 4.46972 7.75 4.02526V3.97474C7.75001 3.53028 7.75001 3.15925 7.72923 2.85464C7.7076 2.53754 7.66095 2.23801 7.54067 1.94762C7.26156 1.27379 6.72621 0.73844 6.05238 0.459332C5.76199 0.339049 5.46247 0.292406 5.14537 0.270771ZM2.52165 1.84515C2.5988 1.81319 2.71602 1.78372 2.95674 1.76729C3.20421 1.75041 3.5238 1.75 4 1.75C4.4762 1.75 4.7958 1.75041 5.04326 1.76729C5.28399 1.78372 5.4012 1.81319 5.47836 1.84515C5.78464 1.97202 6.02798 2.21536 6.15485 2.52165C6.18681 2.5988 6.21629 2.71602 6.23271 2.95674C6.24959 3.20421 6.25 3.5238 6.25 4C6.25 4.4762 6.24959 4.7958 6.23271 5.04326C6.21629 5.28399 6.18681 5.4012 6.15485 5.47836C6.02798 5.78464 5.78464 6.02798 5.47836 6.15485C5.4012 6.18681 5.28399 6.21629 5.04326 6.23271C4.7958 6.24959 4.4762 6.25 4 6.25C3.5238 6.25 3.20421 6.24959 2.95674 6.23271C2.71602 6.21629 2.5988 6.18681 2.52165 6.15485C2.21536 6.02798 1.97202 5.78464 1.84515 5.47836C1.81319 5.4012 1.78372 5.28399 1.76729 5.04326C1.75041 4.7958 1.75 4.4762 1.75 4C1.75 3.5238 1.75041 3.20421 1.76729 2.95674C1.78372 2.71602 1.81319 2.5988 1.84515 2.52165C1.97202 2.21536 2.21536 1.97202 2.52165 1.84515Z" />
        <path
            d="M15.1454 0.270771C14.8408 0.249987 14.4697 0.249993 14.0253 0.25H13.9748C13.5303 0.249993 13.1592 0.249987 12.8546 0.270771C12.5375 0.292406 12.238 0.339049 11.9476 0.459332C11.2738 0.73844 10.7384 1.27379 10.4593 1.94762C10.339 2.23801 10.2924 2.53754 10.2708 2.85464C10.25 3.15925 10.25 3.53028 10.25 3.97474V4.02526C10.25 4.46972 10.25 4.84075 10.2708 5.14537C10.2924 5.46247 10.339 5.76199 10.4593 6.05238C10.7384 6.72621 11.2738 7.26156 11.9476 7.54067C12.238 7.66095 12.5375 7.7076 12.8546 7.72923C13.1592 7.75001 13.5303 7.75001 13.9747 7.75H14.0253C14.4697 7.75001 14.8408 7.75001 15.1454 7.72923C15.4625 7.7076 15.762 7.66095 16.0524 7.54067C16.7262 7.26156 17.2616 6.72621 17.5407 6.05238C17.661 5.76199 17.7076 5.46247 17.7292 5.14537C17.75 4.84075 17.75 4.46972 17.75 4.02526V3.97474C17.75 3.53028 17.75 3.15925 17.7292 2.85464C17.7076 2.53754 17.661 2.23801 17.5407 1.94762C17.2616 1.27379 16.7262 0.73844 16.0524 0.459332C15.762 0.339049 15.4625 0.292406 15.1454 0.270771ZM12.5216 1.84515C12.5988 1.81319 12.716 1.78372 12.9567 1.76729C13.2042 1.75041 13.5238 1.75 14 1.75C14.4762 1.75 14.7958 1.75041 15.0433 1.76729C15.284 1.78372 15.4012 1.81319 15.4784 1.84515C15.7846 1.97202 16.028 2.21536 16.1549 2.52165C16.1868 2.5988 16.2163 2.71602 16.2327 2.95674C16.2496 3.20421 16.25 3.5238 16.25 4C16.25 4.4762 16.2496 4.7958 16.2327 5.04326C16.2163 5.28399 16.1868 5.4012 16.1549 5.47836C16.028 5.78464 15.7846 6.02798 15.4784 6.15485C15.4012 6.18681 15.284 6.21629 15.0433 6.23271C14.7958 6.24959 14.4762 6.25 14 6.25C13.5238 6.25 13.2042 6.24959 12.9567 6.23271C12.716 6.21629 12.5988 6.18681 12.5216 6.15485C12.2154 6.02798 11.972 5.78464 11.8452 5.47836C11.8132 5.4012 11.7837 5.28399 11.7673 5.04326C11.7504 4.7958 11.75 4.4762 11.75 4C11.75 3.5238 11.7504 3.20421 11.7673 2.95674C11.7837 2.71602 11.8132 2.5988 11.8452 2.52165C11.972 2.21536 12.2154 1.97202 12.5216 1.84515Z" />
        <path
            d="M5.14537 10.2708C4.84075 10.25 4.46972 10.25 4.02526 10.25H3.97474C3.53028 10.25 3.15925 10.25 2.85464 10.2708C2.53754 10.2924 2.23801 10.339 1.94762 10.4593C1.27379 10.7384 0.73844 11.2738 0.459332 11.9476C0.339049 12.238 0.292406 12.5375 0.270771 12.8546C0.249987 13.1592 0.249993 13.5303 0.25 13.9747V14.0253C0.249993 14.4697 0.249987 14.8408 0.270771 15.1454C0.292406 15.4625 0.339049 15.762 0.459332 16.0524C0.73844 16.7262 1.27379 17.2616 1.94762 17.5407C2.23801 17.661 2.53754 17.7076 2.85464 17.7292C3.15925 17.75 3.53028 17.75 3.97474 17.75H4.02526C4.46972 17.75 4.84075 17.75 5.14537 17.7292C5.46247 17.7076 5.76199 17.661 6.05238 17.5407C6.72621 17.2616 7.26156 16.7262 7.54067 16.0524C7.66095 15.762 7.7076 15.4625 7.72923 15.1454C7.75001 14.8408 7.75001 14.4697 7.75 14.0253V13.9747C7.75001 13.5303 7.75001 13.1592 7.72923 12.8546C7.7076 12.5375 7.66095 12.238 7.54067 11.9476C7.26156 11.2738 6.72621 10.7384 6.05238 10.4593C5.76199 10.339 5.46247 10.2924 5.14537 10.2708ZM2.52165 11.8452C2.5988 11.8132 2.71602 11.7837 2.95674 11.7673C3.20421 11.7504 3.5238 11.75 4 11.75C4.4762 11.75 4.7958 11.7504 5.04326 11.7673C5.28399 11.7837 5.4012 11.8132 5.47836 11.8452C5.78464 11.972 6.02798 12.2154 6.15485 12.5216C6.18681 12.5988 6.21629 12.716 6.23271 12.9567C6.24959 13.2042 6.25 13.5238 6.25 14C6.25 14.4762 6.24959 14.7958 6.23271 15.0433C6.21629 15.284 6.18681 15.4012 6.15485 15.4784C6.02798 15.7846 5.78464 16.028 5.47836 16.1549C5.4012 16.1868 5.28399 16.2163 5.04326 16.2327C4.7958 16.2496 4.4762 16.25 4 16.25C3.5238 16.25 3.20421 16.2496 2.95674 16.2327C2.71602 16.2163 2.5988 16.1868 2.52165 16.1549C2.21536 16.028 1.97202 15.7846 1.84515 15.4784C1.81319 15.4012 1.78372 15.284 1.76729 15.0433C1.75041 14.7958 1.75 14.4762 1.75 14C1.75 13.5238 1.75041 13.2042 1.76729 12.9567C1.78372 12.716 1.81319 12.5988 1.84515 12.5216C1.97202 12.2154 2.21536 11.972 2.52165 11.8452Z" />
        <path
            d="M15.1454 10.2708C14.8408 10.25 14.4697 10.25 14.0253 10.25H13.9747C13.5303 10.25 13.1592 10.25 12.8546 10.2708C12.5375 10.2924 12.238 10.339 11.9476 10.4593C11.2738 10.7384 10.7384 11.2738 10.4593 11.9476C10.339 12.238 10.2924 12.5375 10.2708 12.8546C10.25 13.1592 10.25 13.5303 10.25 13.9747V14.0253C10.25 14.4697 10.25 14.8408 10.2708 15.1454C10.2924 15.4625 10.339 15.762 10.4593 16.0524C10.7384 16.7262 11.2738 17.2616 11.9476 17.5407C12.238 17.661 12.5375 17.7076 12.8546 17.7292C13.1592 17.75 13.5303 17.75 13.9747 17.75H14.0253C14.4697 17.75 14.8408 17.75 15.1454 17.7292C15.4625 17.7076 15.762 17.661 16.0524 17.5407C16.7262 17.2616 17.2616 16.7262 17.5407 16.0524C17.661 15.762 17.7076 15.4625 17.7292 15.1454C17.75 14.8408 17.75 14.4697 17.75 14.0253V13.9747C17.75 13.5303 17.75 13.1592 17.7292 12.8546C17.7076 12.5375 17.661 12.238 17.5407 11.9476C17.2616 11.2738 16.7262 10.7384 16.0524 10.4593C15.762 10.339 15.4625 10.2924 15.1454 10.2708ZM12.5216 11.8452C12.5988 11.8132 12.716 11.7837 12.9567 11.7673C13.2042 11.7504 13.5238 11.75 14 11.75C14.4762 11.75 14.7958 11.7504 15.0433 11.7673C15.284 11.7837 15.4012 11.8132 15.4784 11.8452C15.7846 11.972 16.028 12.2154 16.1549 12.5216C16.1868 12.5988 16.2163 12.716 16.2327 12.9567C16.2496 13.2042 16.25 13.5238 16.25 14C16.25 14.4762 16.2496 14.7958 16.2327 15.0433C16.2163 15.284 16.1868 15.4012 16.1549 15.4784C16.028 15.7846 15.7846 16.028 15.4784 16.1549C15.4012 16.1868 15.284 16.2163 15.0433 16.2327C14.7958 16.2496 14.4762 16.25 14 16.25C13.5238 16.25 13.2042 16.2496 12.9567 16.2327C12.716 16.2163 12.5988 16.1868 12.5216 16.1549C12.2154 16.028 11.972 15.7846 11.8452 15.4784C11.8132 15.4012 11.7837 15.284 11.7673 15.0433C11.7504 14.7958 11.75 14.4762 11.75 14C11.75 13.5238 11.7504 13.2042 11.7673 12.9567C11.7837 12.716 11.8132 12.5988 11.8452 12.5216C11.972 12.2154 12.2154 11.972 12.5216 11.8452Z" />
    </symbol>
    <symbol id="phone" viewBox="0 0 16 16">
        <path
            d="M5.40789 1.98337C4.7065 1.33888 3.62839 1.33888 2.927 1.98337C2.89828 2.00976 2.86761 2.04043 2.82779 2.08026L2.22946 2.67859C1.62739 3.28067 1.37464 4.14861 1.55935 4.9798C2.60733 9.69571 6.29035 13.3787 11.0063 14.4267C11.8374 14.6114 12.7054 14.3587 13.3075 13.7566L13.9057 13.1583C13.9456 13.1185 13.9763 13.0878 14.0027 13.0591C14.6472 12.3577 14.6472 11.2796 14.0027 10.5782C13.9763 10.5494 13.9456 10.5188 13.9057 10.4789L12.9262 9.4994C12.2462 8.81933 11.2191 8.62483 10.3375 9.00914C9.83277 9.22915 9.2448 9.1178 8.85547 8.72846L7.2576 7.13059C6.86826 6.74125 6.75691 6.15329 6.97692 5.64855C7.36123 4.76691 7.16673 3.73989 6.48666 3.05982L5.50711 2.08027C5.46728 2.04044 5.43661 2.00976 5.40789 1.98337ZM3.60361 2.71971C3.92242 2.42676 4.41247 2.42676 4.73128 2.71971C4.74229 2.72982 4.75671 2.74409 4.80742 2.7948L5.77955 3.76693C6.16889 4.15627 6.28024 4.74423 6.06023 5.24897C5.67592 6.13061 5.87042 7.15763 6.55049 7.8377L8.14836 9.43557C8.82843 10.1156 9.85545 10.3101 10.7371 9.92583C11.2418 9.70582 11.8298 9.81717 12.2191 10.2065L13.1913 11.1786C13.242 11.2293 13.2562 11.2438 13.2663 11.2548C13.5593 11.5736 13.5593 12.0636 13.2663 12.3825C13.2562 12.3935 13.242 12.4079 13.1913 12.4586L12.6004 13.0495C12.24 13.4098 11.7206 13.5611 11.2232 13.4505C6.8863 12.4868 3.49929 9.09975 2.53554 4.76287C2.425 4.26544 2.57625 3.74601 2.93657 3.3857L3.52746 2.7948C3.57818 2.74409 3.5926 2.72982 3.60361 2.71971Z" />
    </symbol>

    <symbol id="arrowRight" viewBox="0 0 18 13">
        <path
            d="M13.528 0.967309C13.2338 0.675726 12.7589 0.677844 12.4673 0.972041C12.1757 1.26624 12.1778 1.74111 12.472 2.03269L14.235 3.78C14.9505 4.48914 15.4413 4.97718 15.7734 5.39071C15.8813 5.52509 15.9655 5.6434 16.0309 5.75L1 5.75C0.585786 5.75 0.25 6.08579 0.25 6.5C0.25 6.91422 0.585786 7.25 1 7.25L16.0309 7.25C15.9655 7.3566 15.8813 7.47491 15.7734 7.60929C15.4413 8.02282 14.9505 8.51086 14.235 9.22L12.472 10.9673C12.1778 11.2589 12.1757 11.7338 12.4673 12.028C12.7589 12.3222 13.2338 12.3243 13.528 12.0327L15.3227 10.2539C15.9987 9.58395 16.5511 9.03641 16.9429 8.54854C17.3504 8.04121 17.6453 7.52628 17.7241 6.90816C17.7414 6.77265 17.75 6.63632 17.75 6.5C17.75 6.36368 17.7414 6.22735 17.7241 6.09184C17.6453 5.47372 17.3504 4.95878 16.9429 4.45146C16.5511 3.96358 15.9987 3.41604 15.3227 2.74609L13.528 0.967309Z" />
    </symbol>

    <symbol id="close" viewBox="0 0 16 16">
        <path
            d="M15.5304 1.53033C15.8232 1.23744 15.8232 0.762563 15.5304 0.46967C15.2375 0.176777 14.7626 0.176777 14.4697 0.46967L8.00001 6.93935L1.53033 0.469673C1.23744 0.17678 0.762563 0.17678 0.46967 0.469673C0.176777 0.762566 0.176777 1.23744 0.46967 1.53033L6.93935 8.00001L0.469697 14.4697C0.176804 14.7626 0.176804 15.2374 0.469697 15.5303C0.76259 15.8232 1.23746 15.8232 1.53036 15.5303L8.00001 9.06067L14.4697 15.5303C14.7626 15.8232 15.2374 15.8232 15.5303 15.5303C15.8232 15.2374 15.8232 14.7626 15.5303 14.4697L9.06067 8.00002L15.5304 1.53033Z" />
    </symbol>

    <symbol id="telegram" viewBox="0 0 64 56">
        <path
            d="M62.7468 1.24363C61.7172 0.300251 60.2538 -0.0141247 58.9274 0.423L2.6539 18.9731C1.12028 19.4786 0.0802784 20.8476 0.00440342 22.4605C-0.0713466 24.0735 0.835528 25.5341 2.31478 26.1815L16.2317 32.2705C16.2995 32.5855 20.2947 51.115 20.4305 51.7449C20.6049 52.5539 21.0155 53.2745 21.8854 53.4961C22.7653 53.7203 23.3869 53.2394 24.0434 52.7479C24.4088 52.4744 34.3709 45.0148 34.3709 45.0148L46.4445 54.8946C47.1478 55.4704 48.0073 55.7706 48.8837 55.7706C49.3009 55.7705 49.7221 55.7025 50.1319 55.5635C51.4026 55.1326 52.3447 54.0955 52.6518 52.7894L63.8975 4.97663C64.2171 3.61725 63.7764 2.187 62.7468 1.24363ZM24.943 35.7596C24.9362 35.7759 24.9294 35.7943 24.923 35.8163L22.595 43.9498L19.997 31.9004L37.8617 21.9748L25.3715 35.0345C25.1748 35.2403 25.03 35.489 24.943 35.7596ZM25.6819 46.8253L26.7393 43.1309L27.7507 39.5973L31.3745 42.5628L25.6819 46.8253ZM60.2385 4.11588L48.9929 51.9286C48.9873 51.9524 48.9798 51.9851 48.9248 52.0038C48.8703 52.0223 48.8438 52.0011 48.825 51.9856L35.6137 41.1746C35.6133 41.1744 35.613 41.174 35.6127 41.1738L29.4915 36.1648L49.1569 15.6025C49.7992 14.9309 49.8542 13.8908 49.2863 13.1551C48.7182 12.4194 47.6979 12.2093 46.8858 12.6608L17.7669 28.8394L3.82153 22.7377C3.77903 22.7192 3.75565 22.7089 3.75903 22.637C3.7624 22.5654 3.78665 22.5572 3.83065 22.5427L60.1042 3.99275C60.1314 3.98388 60.1622 3.97363 60.2074 4.01488C60.2527 4.05638 60.2452 4.08788 60.2385 4.11588Z" />
    </symbol>

    <symbol id="viber" viewBox="0 0 64 64">
        <path
            d="M38.9112 26.2034H36.152C36.152 23.1512 35.0659 22.0651 32.0137 22.0651V19.3064C36.5834 19.3064 38.9112 21.6342 38.9112 26.2034Z" />
        <path
            d="M44.4286 26.2034H41.6699C41.6699 20.0651 38.1524 16.5472 32.0137 16.5472V13.7885C39.6699 13.7885 44.4286 18.5476 44.4286 26.2034Z" />
        <path
            d="M49.9465 26.2034H47.1878C47.1878 17.1337 41.0834 11.0298 32.0137 11.0298V8.27056C42.7388 8.27056 49.9465 15.4782 49.9465 26.2034Z" />
        <path
            d="M18.2193 63.9998V54.482L15.2706 54.137C8.218 53.2747 2.70059 47.4814 2.14845 40.3601C1.83828 36.1526 1.66602 31.842 1.66602 27.583C1.66602 23.324 1.83828 19.0306 2.14845 14.8059C2.70059 7.68457 8.32156 1.87366 15.5121 0.994164C26.4615 -0.331388 37.5307 -0.331388 48.4806 0.994164C55.6878 1.87366 61.3093 7.68457 61.8609 14.8059C62.1888 19.0129 62.3439 23.324 62.3439 27.583C62.3439 31.842 62.1716 36.1526 61.8609 40.3601C61.3265 47.4638 55.8086 53.2575 48.7736 54.137C43.8473 54.7462 38.8911 55.0857 33.9273 55.1544L18.2193 63.9998ZM32.0133 2.75315C26.6131 2.75416 21.2174 3.08252 15.8566 3.73569C9.95981 4.4601 5.35574 9.20208 4.90766 15.0302C4.57981 19.1685 4.42472 23.3927 4.42472 27.583C4.42472 31.7728 4.57981 36.0147 4.90766 40.153C5.35826 45.969 9.82948 50.67 15.6156 51.4126C16.9831 51.5849 18.3572 51.7344 19.7363 51.8607L20.9951 51.9814V59.2927L33.2034 52.4129H33.548C38.5289 52.3573 43.5027 52.0234 48.4458 51.4126C54.188 50.7059 58.6708 45.9639 59.1194 40.1702C59.4468 36.0319 59.6023 31.79 59.6023 27.6002C59.6023 23.4098 59.4468 19.1857 59.1194 15.0302C58.6708 9.20208 54.0673 4.4601 48.1528 3.73569C42.7975 3.08403 37.4079 2.75567 32.0133 2.75315Z" />
        <path
            d="M37.4295 45.5153H36.1534C23.2212 45.5153 12.7032 34.9973 12.7032 22.0651V20.789C12.6966 18.5885 13.572 16.477 15.1345 14.9266L16.2727 13.7885C18.0483 12.0123 21.152 12.0123 22.9282 13.7885L26.4977 17.358C27.3838 18.238 27.8803 19.4367 27.8768 20.6855C27.8728 21.9332 27.3772 23.129 26.4977 24.0135L26.1698 24.3414C25.4944 25.0188 25.1161 25.9367 25.1181 26.893C25.1216 27.8487 25.4995 28.7646 26.1698 29.445L28.7563 32.0315C30.1015 33.3767 32.5324 33.3767 33.8776 32.0315L34.205 31.7041C35.9812 29.928 39.0849 29.928 40.861 31.7041L44.43 35.2903C46.2678 37.1286 46.2678 40.1081 44.43 41.9464L43.2924 43.0845C41.742 44.6465 39.6305 45.5219 37.4295 45.5153ZM19.6002 15.1681C19.0834 15.1671 18.5868 15.3717 18.2211 15.7369L17.0829 16.875C16.0403 17.9101 15.4563 19.32 15.4619 20.789V22.0651C15.4715 33.4889 24.7301 42.747 36.1534 42.7566H37.4295C38.8929 42.7582 40.2958 42.1742 41.3263 41.1361L42.4644 39.9979C42.8312 39.6322 43.0368 39.1361 43.0368 38.6183C43.0368 38.1005 42.8312 37.6045 42.4644 37.2387L38.9126 33.6697C38.1397 32.9337 36.9263 32.9337 36.1534 33.6697L35.8261 33.9971C33.3351 36.486 29.2988 36.486 26.8079 33.9971L24.2214 31.4106C23.0287 30.2094 22.3594 28.5858 22.3594 26.893C22.3569 25.2052 23.0267 23.5856 24.2214 22.3929L24.5493 22.0651C24.9125 21.6978 25.1171 21.2023 25.1181 20.6855C25.1191 20.1687 24.9145 19.6721 24.5493 19.3064L20.9798 15.7369C20.6135 15.3717 20.1175 15.1671 19.6002 15.1681Z" />
    </symbol>

    <symbol id="socials" viewBox="0 0 55 60">
        <mask id="path-1-outside-1_2107_8395" maskUnits="userSpaceOnUse" x="-0.240234" y="0.333334" width="55"
            height="59" fill="black">
            <rect fill="white" x="-0.240234" y="0.333334" width="55" height="59" />
            <path
                d="M26.7474 34.66C26.7474 34.1933 26.6541 33.72 26.4874 33.3C25.7341 31.4333 23.6008 30.5267 21.7408 31.2733L21.4341 31.3933L19.6008 26.8267C19.4008 26.3333 18.9741 25.96 18.4608 25.8333C17.9474 25.7067 17.3941 25.8333 16.9541 26.2067L10.3408 32.6267L4.91411 34.8C2.54077 35.76 0.90744 38.02 0.760774 40.5733C0.740774 40.94 1.02077 41.26 1.38744 41.28C1.76077 41.3 2.07411 41.02 2.09411 40.6533C2.21411 38.6133 3.52077 36.8067 5.41411 36.04L10.3408 34.0667L11.4274 36.78L14.2941 43.92L9.36077 45.9C7.75411 46.54 5.93411 46.36 4.48744 45.42C4.18077 45.22 3.76744 45.3067 3.56744 45.6133C3.36744 45.92 3.45411 46.3333 3.76077 46.5333C4.85411 47.2467 6.12077 47.6133 7.38744 47.6133C7.80744 47.6133 8.23411 47.5733 8.65411 47.4933L13.0674 53.7067C13.7341 54.6467 14.8008 55.1733 15.9008 55.1733C16.3341 55.1733 16.7741 55.0933 17.2008 54.92L18.3474 54.46C18.8208 54.2667 19.1808 53.88 19.3208 53.3867C19.4674 52.8933 19.3741 52.3733 19.0808 51.9533L14.3741 45.32L15.2874 44.9533L24.5008 45.02C24.5008 45.02 24.5274 45.02 24.5408 45.02C25.0741 44.9867 25.5608 44.7 25.8474 44.2533C26.1341 43.8 26.1874 43.24 25.9874 42.7467L24.1541 38.18L24.4608 38.0533C25.8541 37.4933 26.7541 36.1667 26.7541 34.66H26.7474ZM13.0941 45.8333L17.9874 52.7267C18.0674 52.84 18.0541 52.9533 18.0341 53.0067C18.0208 53.0667 17.9674 53.1667 17.8408 53.22L16.6941 53.68C15.7674 54.0467 14.7208 53.74 14.1474 52.9333L9.98744 47.08L13.0874 45.8333H13.0941ZM24.7141 43.54C24.6808 43.5933 24.6074 43.68 24.4741 43.6933L15.6074 43.6267L12.6408 36.2467L11.4874 33.3667L17.8408 27.2C17.9541 27.1067 18.0741 27.1133 18.1341 27.1333C18.1941 27.1467 18.3074 27.1933 18.3608 27.3333L24.7474 43.2533C24.8008 43.3867 24.7474 43.5 24.7208 43.5533L24.7141 43.54ZM21.9208 32.6333L22.2274 32.5133C23.4141 32.04 24.7674 32.62 25.2474 33.8067C25.3541 34.0667 25.4141 34.3667 25.4141 34.66C25.4141 35.6 24.8274 36.4667 23.9608 36.8133L23.6541 36.94L21.9274 32.6333H21.9208ZM2.89411 43.8C3.09411 44.1067 3.00744 44.52 2.69411 44.72C2.58077 44.7933 2.46077 44.8267 2.33411 44.8267C2.11411 44.8267 1.90077 44.72 1.77411 44.52C1.56744 44.1933 1.38077 43.8333 1.22077 43.4467C1.22077 43.44 1.19411 43.3733 1.18744 43.3667C1.06077 43.0267 1.22744 42.62 1.56744 42.4933C1.90744 42.36 2.28077 42.5 2.41411 42.84C2.41411 42.8467 2.44077 42.9067 2.44077 42.9133C2.58077 43.2533 2.72744 43.54 2.89411 43.8ZM29.5608 32.7333C29.2941 32.7333 29.0474 32.5733 28.9408 32.3133C28.8008 31.9733 28.9674 31.5867 29.3141 31.4467L32.0874 30.3333C32.4274 30.1933 32.8208 30.36 32.9541 30.7067C33.0941 31.0467 32.9274 31.4333 32.5808 31.5733L29.8074 32.6867C29.7274 32.72 29.6408 32.7333 29.5608 32.7333ZM28.4341 26.0267L26.8808 28.58C26.7541 28.7867 26.5341 28.9 26.3141 28.9C26.1941 28.9 26.0741 28.8667 25.9674 28.8C25.6541 28.6067 25.5541 28.2 25.7474 27.8867L27.3008 25.3333C27.4941 25.02 27.9008 24.92 28.2141 25.1133C28.5274 25.3067 28.6274 25.7133 28.4341 26.0267ZM32.5808 38.5L29.6941 37.7267C29.3408 37.6333 29.1274 37.2667 29.2208 36.9133C29.3141 36.56 29.6808 36.34 30.0341 36.44L32.9208 37.2133C33.2741 37.3067 33.4874 37.6733 33.3941 38.0267C33.3141 38.3267 33.0474 38.52 32.7474 38.52C32.6941 38.52 32.6341 38.5133 32.5741 38.5H32.5808ZM42.4408 38.6667C36.9274 38.6667 32.4408 43.1533 32.4408 48.6667C32.4408 54.18 36.9274 58.6667 42.4408 58.6667C47.9541 58.6667 52.4408 54.18 52.4408 48.6667C52.4408 43.1533 47.9541 38.6667 42.4408 38.6667ZM42.4408 57.3333C37.6608 57.3333 33.7741 53.4467 33.7741 48.6667C33.7741 43.8867 37.6608 40 42.4408 40C47.2208 40 51.1074 43.8867 51.1074 48.6667C51.1074 53.4467 47.2208 57.3333 42.4408 57.3333ZM45.4141 43.6933H39.4674C38.3674 43.6933 37.4674 44.5933 37.4674 45.6933V51.64C37.4674 52.74 38.3674 53.64 39.4674 53.64H45.4141C46.5141 53.64 47.4141 52.74 47.4141 51.64V45.6933C47.4141 44.5933 46.5141 43.6933 45.4141 43.6933ZM46.0808 51.64C46.0808 52.0067 45.7808 52.3067 45.4141 52.3067H39.4674C39.1008 52.3067 38.8008 52.0067 38.8008 51.64V45.6933C38.8008 45.3267 39.1008 45.0267 39.4674 45.0267H45.4141C45.7808 45.0267 46.0808 45.3267 46.0808 45.6933V51.64ZM42.4408 46.5667C41.2808 46.5667 40.3408 47.5133 40.3408 48.6667C40.3408 49.82 41.2808 50.7667 42.4408 50.7667C43.6008 50.7667 44.5408 49.82 44.5408 48.6667C44.5408 47.5133 43.6008 46.5667 42.4408 46.5667ZM42.4408 49.4333C42.0141 49.4333 41.6741 49.0867 41.6741 48.6667C41.6741 48.2467 42.0208 47.9 42.4408 47.9C42.8608 47.9 43.2074 48.2467 43.2074 48.6667C43.2074 49.0867 42.8608 49.4333 42.4408 49.4333ZM43.5208 32.82C49.0341 32.82 53.5208 28.3333 53.5208 22.82C53.5208 17.3067 49.0341 12.82 43.5208 12.82C38.0074 12.82 33.5208 17.3067 33.5208 22.82C33.5208 28.3333 38.0074 32.82 43.5208 32.82ZM43.5208 14.1533C48.3008 14.1533 52.1874 18.04 52.1874 22.82C52.1874 27.6 48.3008 31.4867 43.5208 31.4867C38.7408 31.4867 34.8541 27.6 34.8541 22.82C34.8541 18.04 38.7408 14.1533 43.5208 14.1533ZM40.3408 21.92C40.3408 21.5533 40.6408 21.2533 41.0074 21.2533H42.5008V20.0267C42.5008 18.5267 43.7208 17.3067 45.2208 17.3067H46.0408C46.4074 17.3067 46.7074 17.6067 46.7074 17.9733C46.7074 18.34 46.4074 18.64 46.0408 18.64H45.2208C44.4541 18.64 43.8341 19.26 43.8341 20.0267V21.2533H45.3208C45.6874 21.2533 45.9874 21.5533 45.9874 21.92C45.9874 22.2867 45.6874 22.5867 45.3208 22.5867H43.8341V27.6667C43.8341 28.0333 43.5341 28.3333 43.1674 28.3333C42.8008 28.3333 42.5008 28.0333 42.5008 27.6667V22.5867H41.0074C40.6408 22.5867 40.3408 22.2867 40.3408 21.92ZM18.7141 1.33333C13.2008 1.33333 8.71411 5.82 8.71411 11.3333C8.71411 16.8467 13.2008 21.3333 18.7141 21.3333C24.2274 21.3333 28.7141 16.8467 28.7141 11.3333C28.7141 5.82 24.2274 1.33333 18.7141 1.33333ZM18.7141 20C13.9341 20 10.0474 16.1133 10.0474 11.3333C10.0474 6.55333 13.9341 2.66667 18.7141 2.66667C23.4941 2.66667 27.3808 6.55333 27.3808 11.3333C27.3808 16.1133 23.4941 20 18.7141 20ZM21.8208 9.52L18.2608 7.46667C17.6074 7.08667 16.8208 7.08667 16.1674 7.46667C15.5141 7.84667 15.1208 8.52 15.1208 9.28V13.3933C15.1208 14.1467 15.5141 14.8267 16.1674 15.2067C16.4941 15.3933 16.8541 15.4933 17.2141 15.4933C17.5741 15.4933 17.9341 15.4 18.2608 15.2133L21.8208 13.16C22.4741 12.78 22.8674 12.1067 22.8674 11.3467C22.8674 10.5867 22.4741 9.91333 21.8208 9.53333V9.52ZM21.1541 11.9867L17.5941 14.04C17.2541 14.24 16.9474 14.1067 16.8341 14.04C16.7208 13.9733 16.4541 13.78 16.4541 13.3867V9.27333C16.4541 8.88 16.7208 8.68 16.8341 8.62C16.9008 8.58 17.0408 8.51333 17.2141 8.51333C17.3274 8.51333 17.4541 8.54 17.5874 8.62L21.1474 10.6733C21.4874 10.8733 21.5274 11.2 21.5274 11.3267C21.5274 11.4533 21.4874 11.7867 21.1474 11.98L21.1541 11.9867Z" />
        </mask>
        <path
            d="M26.7474 34.66C26.7474 34.1933 26.6541 33.72 26.4874 33.3C25.7341 31.4333 23.6008 30.5267 21.7408 31.2733L21.4341 31.3933L19.6008 26.8267C19.4008 26.3333 18.9741 25.96 18.4608 25.8333C17.9474 25.7067 17.3941 25.8333 16.9541 26.2067L10.3408 32.6267L4.91411 34.8C2.54077 35.76 0.90744 38.02 0.760774 40.5733C0.740774 40.94 1.02077 41.26 1.38744 41.28C1.76077 41.3 2.07411 41.02 2.09411 40.6533C2.21411 38.6133 3.52077 36.8067 5.41411 36.04L10.3408 34.0667L11.4274 36.78L14.2941 43.92L9.36077 45.9C7.75411 46.54 5.93411 46.36 4.48744 45.42C4.18077 45.22 3.76744 45.3067 3.56744 45.6133C3.36744 45.92 3.45411 46.3333 3.76077 46.5333C4.85411 47.2467 6.12077 47.6133 7.38744 47.6133C7.80744 47.6133 8.23411 47.5733 8.65411 47.4933L13.0674 53.7067C13.7341 54.6467 14.8008 55.1733 15.9008 55.1733C16.3341 55.1733 16.7741 55.0933 17.2008 54.92L18.3474 54.46C18.8208 54.2667 19.1808 53.88 19.3208 53.3867C19.4674 52.8933 19.3741 52.3733 19.0808 51.9533L14.3741 45.32L15.2874 44.9533L24.5008 45.02C24.5008 45.02 24.5274 45.02 24.5408 45.02C25.0741 44.9867 25.5608 44.7 25.8474 44.2533C26.1341 43.8 26.1874 43.24 25.9874 42.7467L24.1541 38.18L24.4608 38.0533C25.8541 37.4933 26.7541 36.1667 26.7541 34.66H26.7474ZM13.0941 45.8333L17.9874 52.7267C18.0674 52.84 18.0541 52.9533 18.0341 53.0067C18.0208 53.0667 17.9674 53.1667 17.8408 53.22L16.6941 53.68C15.7674 54.0467 14.7208 53.74 14.1474 52.9333L9.98744 47.08L13.0874 45.8333H13.0941ZM24.7141 43.54C24.6808 43.5933 24.6074 43.68 24.4741 43.6933L15.6074 43.6267L12.6408 36.2467L11.4874 33.3667L17.8408 27.2C17.9541 27.1067 18.0741 27.1133 18.1341 27.1333C18.1941 27.1467 18.3074 27.1933 18.3608 27.3333L24.7474 43.2533C24.8008 43.3867 24.7474 43.5 24.7208 43.5533L24.7141 43.54ZM21.9208 32.6333L22.2274 32.5133C23.4141 32.04 24.7674 32.62 25.2474 33.8067C25.3541 34.0667 25.4141 34.3667 25.4141 34.66C25.4141 35.6 24.8274 36.4667 23.9608 36.8133L23.6541 36.94L21.9274 32.6333H21.9208ZM2.89411 43.8C3.09411 44.1067 3.00744 44.52 2.69411 44.72C2.58077 44.7933 2.46077 44.8267 2.33411 44.8267C2.11411 44.8267 1.90077 44.72 1.77411 44.52C1.56744 44.1933 1.38077 43.8333 1.22077 43.4467C1.22077 43.44 1.19411 43.3733 1.18744 43.3667C1.06077 43.0267 1.22744 42.62 1.56744 42.4933C1.90744 42.36 2.28077 42.5 2.41411 42.84C2.41411 42.8467 2.44077 42.9067 2.44077 42.9133C2.58077 43.2533 2.72744 43.54 2.89411 43.8ZM29.5608 32.7333C29.2941 32.7333 29.0474 32.5733 28.9408 32.3133C28.8008 31.9733 28.9674 31.5867 29.3141 31.4467L32.0874 30.3333C32.4274 30.1933 32.8208 30.36 32.9541 30.7067C33.0941 31.0467 32.9274 31.4333 32.5808 31.5733L29.8074 32.6867C29.7274 32.72 29.6408 32.7333 29.5608 32.7333ZM28.4341 26.0267L26.8808 28.58C26.7541 28.7867 26.5341 28.9 26.3141 28.9C26.1941 28.9 26.0741 28.8667 25.9674 28.8C25.6541 28.6067 25.5541 28.2 25.7474 27.8867L27.3008 25.3333C27.4941 25.02 27.9008 24.92 28.2141 25.1133C28.5274 25.3067 28.6274 25.7133 28.4341 26.0267ZM32.5808 38.5L29.6941 37.7267C29.3408 37.6333 29.1274 37.2667 29.2208 36.9133C29.3141 36.56 29.6808 36.34 30.0341 36.44L32.9208 37.2133C33.2741 37.3067 33.4874 37.6733 33.3941 38.0267C33.3141 38.3267 33.0474 38.52 32.7474 38.52C32.6941 38.52 32.6341 38.5133 32.5741 38.5H32.5808ZM42.4408 38.6667C36.9274 38.6667 32.4408 43.1533 32.4408 48.6667C32.4408 54.18 36.9274 58.6667 42.4408 58.6667C47.9541 58.6667 52.4408 54.18 52.4408 48.6667C52.4408 43.1533 47.9541 38.6667 42.4408 38.6667ZM42.4408 57.3333C37.6608 57.3333 33.7741 53.4467 33.7741 48.6667C33.7741 43.8867 37.6608 40 42.4408 40C47.2208 40 51.1074 43.8867 51.1074 48.6667C51.1074 53.4467 47.2208 57.3333 42.4408 57.3333ZM45.4141 43.6933H39.4674C38.3674 43.6933 37.4674 44.5933 37.4674 45.6933V51.64C37.4674 52.74 38.3674 53.64 39.4674 53.64H45.4141C46.5141 53.64 47.4141 52.74 47.4141 51.64V45.6933C47.4141 44.5933 46.5141 43.6933 45.4141 43.6933ZM46.0808 51.64C46.0808 52.0067 45.7808 52.3067 45.4141 52.3067H39.4674C39.1008 52.3067 38.8008 52.0067 38.8008 51.64V45.6933C38.8008 45.3267 39.1008 45.0267 39.4674 45.0267H45.4141C45.7808 45.0267 46.0808 45.3267 46.0808 45.6933V51.64ZM42.4408 46.5667C41.2808 46.5667 40.3408 47.5133 40.3408 48.6667C40.3408 49.82 41.2808 50.7667 42.4408 50.7667C43.6008 50.7667 44.5408 49.82 44.5408 48.6667C44.5408 47.5133 43.6008 46.5667 42.4408 46.5667ZM42.4408 49.4333C42.0141 49.4333 41.6741 49.0867 41.6741 48.6667C41.6741 48.2467 42.0208 47.9 42.4408 47.9C42.8608 47.9 43.2074 48.2467 43.2074 48.6667C43.2074 49.0867 42.8608 49.4333 42.4408 49.4333ZM43.5208 32.82C49.0341 32.82 53.5208 28.3333 53.5208 22.82C53.5208 17.3067 49.0341 12.82 43.5208 12.82C38.0074 12.82 33.5208 17.3067 33.5208 22.82C33.5208 28.3333 38.0074 32.82 43.5208 32.82ZM43.5208 14.1533C48.3008 14.1533 52.1874 18.04 52.1874 22.82C52.1874 27.6 48.3008 31.4867 43.5208 31.4867C38.7408 31.4867 34.8541 27.6 34.8541 22.82C34.8541 18.04 38.7408 14.1533 43.5208 14.1533ZM40.3408 21.92C40.3408 21.5533 40.6408 21.2533 41.0074 21.2533H42.5008V20.0267C42.5008 18.5267 43.7208 17.3067 45.2208 17.3067H46.0408C46.4074 17.3067 46.7074 17.6067 46.7074 17.9733C46.7074 18.34 46.4074 18.64 46.0408 18.64H45.2208C44.4541 18.64 43.8341 19.26 43.8341 20.0267V21.2533H45.3208C45.6874 21.2533 45.9874 21.5533 45.9874 21.92C45.9874 22.2867 45.6874 22.5867 45.3208 22.5867H43.8341V27.6667C43.8341 28.0333 43.5341 28.3333 43.1674 28.3333C42.8008 28.3333 42.5008 28.0333 42.5008 27.6667V22.5867H41.0074C40.6408 22.5867 40.3408 22.2867 40.3408 21.92ZM18.7141 1.33333C13.2008 1.33333 8.71411 5.82 8.71411 11.3333C8.71411 16.8467 13.2008 21.3333 18.7141 21.3333C24.2274 21.3333 28.7141 16.8467 28.7141 11.3333C28.7141 5.82 24.2274 1.33333 18.7141 1.33333ZM18.7141 20C13.9341 20 10.0474 16.1133 10.0474 11.3333C10.0474 6.55333 13.9341 2.66667 18.7141 2.66667C23.4941 2.66667 27.3808 6.55333 27.3808 11.3333C27.3808 16.1133 23.4941 20 18.7141 20ZM21.8208 9.52L18.2608 7.46667C17.6074 7.08667 16.8208 7.08667 16.1674 7.46667C15.5141 7.84667 15.1208 8.52 15.1208 9.28V13.3933C15.1208 14.1467 15.5141 14.8267 16.1674 15.2067C16.4941 15.3933 16.8541 15.4933 17.2141 15.4933C17.5741 15.4933 17.9341 15.4 18.2608 15.2133L21.8208 13.16C22.4741 12.78 22.8674 12.1067 22.8674 11.3467C22.8674 10.5867 22.4741 9.91333 21.8208 9.53333V9.52ZM21.1541 11.9867L17.5941 14.04C17.2541 14.24 16.9474 14.1067 16.8341 14.04C16.7208 13.9733 16.4541 13.78 16.4541 13.3867V9.27333C16.4541 8.88 16.7208 8.68 16.8341 8.62C16.9008 8.58 17.0408 8.51333 17.2141 8.51333C17.3274 8.51333 17.4541 8.54 17.5874 8.62L21.1474 10.6733C21.4874 10.8733 21.5274 11.2 21.5274 11.3267C21.5274 11.4533 21.4874 11.7867 21.1474 11.98L21.1541 11.9867Z" />
        <path
            d="M26.7474 34.66C26.7474 34.1933 26.6541 33.72 26.4874 33.3C25.7341 31.4333 23.6008 30.5267 21.7408 31.2733L21.4341 31.3933L19.6008 26.8267C19.4008 26.3333 18.9741 25.96 18.4608 25.8333C17.9474 25.7067 17.3941 25.8333 16.9541 26.2067L10.3408 32.6267L4.91411 34.8C2.54077 35.76 0.90744 38.02 0.760774 40.5733C0.740774 40.94 1.02077 41.26 1.38744 41.28C1.76077 41.3 2.07411 41.02 2.09411 40.6533C2.21411 38.6133 3.52077 36.8067 5.41411 36.04L10.3408 34.0667L11.4274 36.78L14.2941 43.92L9.36077 45.9C7.75411 46.54 5.93411 46.36 4.48744 45.42C4.18077 45.22 3.76744 45.3067 3.56744 45.6133C3.36744 45.92 3.45411 46.3333 3.76077 46.5333C4.85411 47.2467 6.12077 47.6133 7.38744 47.6133C7.80744 47.6133 8.23411 47.5733 8.65411 47.4933L13.0674 53.7067C13.7341 54.6467 14.8008 55.1733 15.9008 55.1733C16.3341 55.1733 16.7741 55.0933 17.2008 54.92L18.3474 54.46C18.8208 54.2667 19.1808 53.88 19.3208 53.3867C19.4674 52.8933 19.3741 52.3733 19.0808 51.9533L14.3741 45.32L15.2874 44.9533L24.5008 45.02C24.5008 45.02 24.5274 45.02 24.5408 45.02C25.0741 44.9867 25.5608 44.7 25.8474 44.2533C26.1341 43.8 26.1874 43.24 25.9874 42.7467L24.1541 38.18L24.4608 38.0533C25.8541 37.4933 26.7541 36.1667 26.7541 34.66H26.7474ZM13.0941 45.8333L17.9874 52.7267C18.0674 52.84 18.0541 52.9533 18.0341 53.0067C18.0208 53.0667 17.9674 53.1667 17.8408 53.22L16.6941 53.68C15.7674 54.0467 14.7208 53.74 14.1474 52.9333L9.98744 47.08L13.0874 45.8333H13.0941ZM24.7141 43.54C24.6808 43.5933 24.6074 43.68 24.4741 43.6933L15.6074 43.6267L12.6408 36.2467L11.4874 33.3667L17.8408 27.2C17.9541 27.1067 18.0741 27.1133 18.1341 27.1333C18.1941 27.1467 18.3074 27.1933 18.3608 27.3333L24.7474 43.2533C24.8008 43.3867 24.7474 43.5 24.7208 43.5533L24.7141 43.54ZM21.9208 32.6333L22.2274 32.5133C23.4141 32.04 24.7674 32.62 25.2474 33.8067C25.3541 34.0667 25.4141 34.3667 25.4141 34.66C25.4141 35.6 24.8274 36.4667 23.9608 36.8133L23.6541 36.94L21.9274 32.6333H21.9208ZM2.89411 43.8C3.09411 44.1067 3.00744 44.52 2.69411 44.72C2.58077 44.7933 2.46077 44.8267 2.33411 44.8267C2.11411 44.8267 1.90077 44.72 1.77411 44.52C1.56744 44.1933 1.38077 43.8333 1.22077 43.4467C1.22077 43.44 1.19411 43.3733 1.18744 43.3667C1.06077 43.0267 1.22744 42.62 1.56744 42.4933C1.90744 42.36 2.28077 42.5 2.41411 42.84C2.41411 42.8467 2.44077 42.9067 2.44077 42.9133C2.58077 43.2533 2.72744 43.54 2.89411 43.8ZM29.5608 32.7333C29.2941 32.7333 29.0474 32.5733 28.9408 32.3133C28.8008 31.9733 28.9674 31.5867 29.3141 31.4467L32.0874 30.3333C32.4274 30.1933 32.8208 30.36 32.9541 30.7067C33.0941 31.0467 32.9274 31.4333 32.5808 31.5733L29.8074 32.6867C29.7274 32.72 29.6408 32.7333 29.5608 32.7333ZM28.4341 26.0267L26.8808 28.58C26.7541 28.7867 26.5341 28.9 26.3141 28.9C26.1941 28.9 26.0741 28.8667 25.9674 28.8C25.6541 28.6067 25.5541 28.2 25.7474 27.8867L27.3008 25.3333C27.4941 25.02 27.9008 24.92 28.2141 25.1133C28.5274 25.3067 28.6274 25.7133 28.4341 26.0267ZM32.5808 38.5L29.6941 37.7267C29.3408 37.6333 29.1274 37.2667 29.2208 36.9133C29.3141 36.56 29.6808 36.34 30.0341 36.44L32.9208 37.2133C33.2741 37.3067 33.4874 37.6733 33.3941 38.0267C33.3141 38.3267 33.0474 38.52 32.7474 38.52C32.6941 38.52 32.6341 38.5133 32.5741 38.5H32.5808ZM42.4408 38.6667C36.9274 38.6667 32.4408 43.1533 32.4408 48.6667C32.4408 54.18 36.9274 58.6667 42.4408 58.6667C47.9541 58.6667 52.4408 54.18 52.4408 48.6667C52.4408 43.1533 47.9541 38.6667 42.4408 38.6667ZM42.4408 57.3333C37.6608 57.3333 33.7741 53.4467 33.7741 48.6667C33.7741 43.8867 37.6608 40 42.4408 40C47.2208 40 51.1074 43.8867 51.1074 48.6667C51.1074 53.4467 47.2208 57.3333 42.4408 57.3333ZM45.4141 43.6933H39.4674C38.3674 43.6933 37.4674 44.5933 37.4674 45.6933V51.64C37.4674 52.74 38.3674 53.64 39.4674 53.64H45.4141C46.5141 53.64 47.4141 52.74 47.4141 51.64V45.6933C47.4141 44.5933 46.5141 43.6933 45.4141 43.6933ZM46.0808 51.64C46.0808 52.0067 45.7808 52.3067 45.4141 52.3067H39.4674C39.1008 52.3067 38.8008 52.0067 38.8008 51.64V45.6933C38.8008 45.3267 39.1008 45.0267 39.4674 45.0267H45.4141C45.7808 45.0267 46.0808 45.3267 46.0808 45.6933V51.64ZM42.4408 46.5667C41.2808 46.5667 40.3408 47.5133 40.3408 48.6667C40.3408 49.82 41.2808 50.7667 42.4408 50.7667C43.6008 50.7667 44.5408 49.82 44.5408 48.6667C44.5408 47.5133 43.6008 46.5667 42.4408 46.5667ZM42.4408 49.4333C42.0141 49.4333 41.6741 49.0867 41.6741 48.6667C41.6741 48.2467 42.0208 47.9 42.4408 47.9C42.8608 47.9 43.2074 48.2467 43.2074 48.6667C43.2074 49.0867 42.8608 49.4333 42.4408 49.4333ZM43.5208 32.82C49.0341 32.82 53.5208 28.3333 53.5208 22.82C53.5208 17.3067 49.0341 12.82 43.5208 12.82C38.0074 12.82 33.5208 17.3067 33.5208 22.82C33.5208 28.3333 38.0074 32.82 43.5208 32.82ZM43.5208 14.1533C48.3008 14.1533 52.1874 18.04 52.1874 22.82C52.1874 27.6 48.3008 31.4867 43.5208 31.4867C38.7408 31.4867 34.8541 27.6 34.8541 22.82C34.8541 18.04 38.7408 14.1533 43.5208 14.1533ZM40.3408 21.92C40.3408 21.5533 40.6408 21.2533 41.0074 21.2533H42.5008V20.0267C42.5008 18.5267 43.7208 17.3067 45.2208 17.3067H46.0408C46.4074 17.3067 46.7074 17.6067 46.7074 17.9733C46.7074 18.34 46.4074 18.64 46.0408 18.64H45.2208C44.4541 18.64 43.8341 19.26 43.8341 20.0267V21.2533H45.3208C45.6874 21.2533 45.9874 21.5533 45.9874 21.92C45.9874 22.2867 45.6874 22.5867 45.3208 22.5867H43.8341V27.6667C43.8341 28.0333 43.5341 28.3333 43.1674 28.3333C42.8008 28.3333 42.5008 28.0333 42.5008 27.6667V22.5867H41.0074C40.6408 22.5867 40.3408 22.2867 40.3408 21.92ZM18.7141 1.33333C13.2008 1.33333 8.71411 5.82 8.71411 11.3333C8.71411 16.8467 13.2008 21.3333 18.7141 21.3333C24.2274 21.3333 28.7141 16.8467 28.7141 11.3333C28.7141 5.82 24.2274 1.33333 18.7141 1.33333ZM18.7141 20C13.9341 20 10.0474 16.1133 10.0474 11.3333C10.0474 6.55333 13.9341 2.66667 18.7141 2.66667C23.4941 2.66667 27.3808 6.55333 27.3808 11.3333C27.3808 16.1133 23.4941 20 18.7141 20ZM21.8208 9.52L18.2608 7.46667C17.6074 7.08667 16.8208 7.08667 16.1674 7.46667C15.5141 7.84667 15.1208 8.52 15.1208 9.28V13.3933C15.1208 14.1467 15.5141 14.8267 16.1674 15.2067C16.4941 15.3933 16.8541 15.4933 17.2141 15.4933C17.5741 15.4933 17.9341 15.4 18.2608 15.2133L21.8208 13.16C22.4741 12.78 22.8674 12.1067 22.8674 11.3467C22.8674 10.5867 22.4741 9.91333 21.8208 9.53333V9.52ZM21.1541 11.9867L17.5941 14.04C17.2541 14.24 16.9474 14.1067 16.8341 14.04C16.7208 13.9733 16.4541 13.78 16.4541 13.3867V9.27333C16.4541 8.88 16.7208 8.68 16.8341 8.62C16.9008 8.58 17.0408 8.51333 17.2141 8.51333C17.3274 8.51333 17.4541 8.54 17.5874 8.62L21.1474 10.6733C21.4874 10.8733 21.5274 11.2 21.5274 11.3267C21.5274 11.4533 21.4874 11.7867 21.1474 11.98L21.1541 11.9867Z"
            stroke="#282934" mask="url(#path-1-outside-1_2107_8395)" />
    </symbol>

    <symbol id="message" viewBox="0 0 22 23">
        <path fill-rule="evenodd" clip-rule="evenodd"
            d="M3.41388 8.26099C3.74878 6.50204 4.59659 4.82081 5.95587 3.45982C9.56443 -0.153275 15.4154 -0.153275 19.024 3.45982C20.1248 4.56202 21.097 6.19355 21.5221 8.00489C21.9499 9.8272 21.8313 11.8742 20.676 13.7356C20.6168 13.8309 20.5802 13.8899 20.5544 13.9341C20.5425 13.9545 20.5362 13.9661 20.5336 13.9711C20.5311 13.9775 20.5297 13.9819 20.5288 13.9847C20.5288 13.988 20.5289 13.9936 20.5295 14.0021C20.5302 14.006 20.5319 14.0147 20.5352 14.0295C20.5438 14.0674 20.5568 14.118 20.5799 14.2074L20.5866 14.2334C20.7193 14.7459 20.8284 15.1672 20.8925 15.5076C20.957 15.8502 20.9944 16.196 20.9257 16.5337C20.73 17.4967 19.9782 18.25 19.0152 18.4462C18.6774 18.515 18.3316 18.4776 17.9893 18.4129C17.6492 18.3487 17.2284 18.2395 16.7165 18.1067L16.6906 18.0999C16.6013 18.0768 16.5507 18.0637 16.513 18.0552C16.4983 18.0518 16.4897 18.0502 16.4857 18.0495C16.4779 18.0489 16.4725 18.0488 16.4692 18.0487C16.4664 18.0496 16.4622 18.0511 16.4564 18.0532C16.4514 18.0559 16.4396 18.0622 16.4191 18.0742C16.3746 18.1002 16.3151 18.1369 16.2192 18.1962C15.5993 18.5798 14.9541 18.8479 14.3005 19.0177C14.058 19.3554 13.7854 19.6778 13.4826 19.9808C12.5908 20.8739 11.2285 21.6843 9.71111 22.0478C8.1832 22.4137 6.44238 22.3371 4.86718 21.3624C4.79079 21.3151 4.74412 21.2863 4.7097 21.2661C4.68224 21.2727 4.64448 21.2824 4.58189 21.2986L4.55666 21.3052C4.13844 21.4137 3.78817 21.5046 3.50368 21.5584C3.21699 21.6125 2.91168 21.6473 2.60781 21.5854C1.76267 21.4132 1.10293 20.752 0.931185 19.9071C0.869454 19.6034 0.904135 19.2981 0.958182 19.0112C1.01181 18.7264 1.10258 18.3758 1.21099 17.957L1.21753 17.9318C1.23393 17.8684 1.24368 17.8305 1.25022 17.8029C1.23012 17.7687 1.20143 17.7224 1.15411 17.6461C0.18042 16.0774 0.0823613 14.3541 0.440872 12.8267C0.796808 11.3103 1.60998 9.94499 2.53337 9.02044C2.81159 8.74187 3.10608 8.48867 3.41388 8.26099ZM7.0172 4.51982C10.0398 1.49339 14.9401 1.49339 17.9627 4.51982C18.8726 5.43094 19.7024 6.81632 20.0618 8.34766C20.4187 9.86803 20.3046 11.4895 19.4015 12.9445C19.393 12.9583 19.3843 12.9722 19.3756 12.9862C19.2895 13.1244 19.1967 13.2733 19.143 13.4084C19.0476 13.6482 19.0146 13.8652 19.0343 14.1225C19.0454 14.2671 19.0842 14.4161 19.1184 14.5471C19.1216 14.5593 19.1247 14.5714 19.1278 14.5833C19.2689 15.1282 19.3648 15.5004 19.4184 15.7852C19.4727 16.0735 19.4654 16.1875 19.4558 16.235C19.3798 16.609 19.088 16.9005 18.7157 16.9764C18.6689 16.9859 18.5554 16.9933 18.2676 16.939C17.9833 16.8853 17.6117 16.7893 17.0674 16.648C17.0555 16.6449 17.0434 16.6418 17.0311 16.6386C16.9005 16.6044 16.7516 16.5655 16.6074 16.5544C16.3503 16.5345 16.1347 16.5671 15.8951 16.6621C15.7603 16.7156 15.6109 16.8083 15.472 16.8946C15.4579 16.9034 15.4439 16.9121 15.43 16.9207C15.4026 16.9376 15.3752 16.9542 15.3478 16.9705C16.252 14.2706 15.6309 11.1714 13.4826 9.02044C11.2563 6.7913 8.01213 6.20388 5.24874 7.25716C5.62506 6.25929 6.21437 5.32365 7.0172 4.51982ZM4.52033 9.31521C6.94742 7.67382 10.2731 7.9295 12.4213 10.0804C14.5519 12.2137 14.8212 15.5073 13.2263 17.9329C12.997 18.2817 12.7288 18.613 12.4213 18.9208C11.7249 19.6181 10.6089 20.2903 9.36171 20.589C8.12503 20.8852 6.81491 20.8036 5.65644 20.0868C5.64495 20.0797 5.63315 20.0724 5.62108 20.0649C5.50954 19.9955 5.37549 19.9122 5.25253 19.8634C5.03646 19.7777 4.83873 19.7478 4.60696 19.7657C4.47555 19.7759 4.34093 19.8112 4.23568 19.8388C4.22518 19.8415 4.21498 19.8442 4.2051 19.8467C3.75505 19.9635 3.45412 20.0412 3.22539 20.0844C2.99317 20.1282 2.92023 20.1182 2.90731 20.1156C2.65282 20.0637 2.45317 19.8644 2.40113 19.6083C2.39839 19.5948 2.38846 19.5214 2.43227 19.2888C2.47542 19.0596 2.55303 18.7582 2.66966 18.3077C2.67222 18.2978 2.67489 18.2876 2.67763 18.2771C2.7052 18.1716 2.74041 18.0368 2.7505 17.9051C2.76828 17.6731 2.73801 17.4742 2.65202 17.258C2.60301 17.1348 2.51967 17.0012 2.45043 16.8902C2.44296 16.8782 2.43566 16.8665 2.42858 16.8551C1.70711 15.6927 1.61355 14.3949 1.90118 13.1695C2.19139 11.9331 2.86214 10.8139 3.5947 10.0804C3.88414 9.79062 4.19437 9.53565 4.52033 9.31521Z" />
        <path
            d="M9.99985 14.5C9.99985 15.0523 10.4476 15.5 10.9998 15.5C11.5521 15.5 11.9998 15.0523 11.9998 14.5C11.9998 13.9477 11.5521 13.5 10.9998 13.5C10.4476 13.5 9.99985 13.9477 9.99985 14.5Z" />
        <path
            d="M6.99985 14.5C6.99985 15.0523 7.44756 15.5 7.99985 15.5C8.55213 15.5 8.99985 15.0523 8.99985 14.5C8.99985 13.9477 8.55213 13.5 7.99985 13.5C7.44756 13.5 6.99985 13.9477 6.99985 14.5Z" />
        <path
            d="M3.99985 14.5C3.99985 15.0523 4.44756 15.5 4.99985 15.5C5.55213 15.5 5.99985 15.0523 5.99985 14.5C5.99985 13.9477 5.55213 13.5 4.99985 13.5C4.44756 13.5 3.99985 13.9477 3.99985 14.5Z" />
    </symbol>

    <symbol id="filterBtn" viewBox="0 0 20 21">
        <path
            d="M1 4.47246C1 2.55467 2.55467 1 4.47246 1H15.5842C17.4707 1 19 2.52929 19 4.41577C19 5.42052 18.5576 6.37431 17.7906 7.02332L14.2703 10.0021C13.1475 10.9521 12.5 12.3482 12.5 13.819V15.5996C12.5 16.4795 12.079 17.3062 11.3675 17.8237L9.42621 19.2355C8.41646 19.9698 7 19.2485 7 18V13.6995C7 12.298 6.41177 10.9608 5.37862 10.0137L2.12603 7.0322C1.40852 6.37448 1 5.44581 1 4.47246Z" />
    </symbol>
    <symbol id="shwoMore" viewBox="0 0 24 25">
        <path
            d="M13.7211 3.02851C13.4608 2.76816 13.0386 2.76816 12.7783 3.02851C12.5179 3.28886 12.5179 3.71097 12.7783 3.97132L13.6402 4.83325L11.8519 4.83324C10.1319 4.83302 9.1033 4.83289 8.2486 5.1106C6.52345 5.67113 5.17091 7.02367 4.61038 8.74882C4.33267 9.60352 4.3328 10.6321 4.33302 12.3521V12.6477C4.3328 14.3677 4.33267 15.3963 4.61038 16.251C4.72416 16.6012 5.10026 16.7928 5.45043 16.679C5.8006 16.5653 5.99223 16.1892 5.87845 15.839C5.67459 15.2116 5.66637 14.4131 5.66637 12.4999C5.66637 10.5867 5.67459 9.78827 5.87845 9.16084C6.3071 7.84161 7.34139 6.80732 8.66063 6.37867C9.28805 6.17481 10.0865 6.16659 11.9997 6.16659H13.4083L12.5729 6.86277C12.2901 7.09848 12.2518 7.51886 12.4876 7.80171C12.7233 8.08456 13.1436 8.12278 13.4265 7.88707L14.8353 6.71309C15.2012 6.4081 15.4019 5.98043 15.4312 5.5446C15.4621 5.0849 15.3026 4.61 14.9468 4.25421L13.7211 3.02851Z" />
        <path
            d="M20.3915 8.30166C20.282 7.95013 19.9083 7.75392 19.5567 7.86341C19.2052 7.97291 19.009 8.34665 19.1185 8.69818C19.3254 9.36254 19.333 10.2064 19.333 12.1979C19.333 14.1895 19.3254 15.0333 19.1185 15.6977C18.6847 17.0903 17.6428 18.1686 16.3308 18.6133C15.7079 18.8244 14.9148 18.8333 12.9997 18.8333H11.6092L12.4711 17.9713C12.7315 17.711 12.7315 17.2889 12.4711 17.0285C12.2108 16.7682 11.7886 16.7682 11.5283 17.0285L10.3026 18.2542C9.94681 18.61 9.78732 19.0849 9.8182 19.5446C9.84748 19.9804 10.0482 20.4081 10.4141 20.7131L11.8229 21.8871C12.1058 22.1228 12.5261 22.0846 12.7618 21.8017C12.9976 21.5189 12.9593 21.0985 12.6765 20.8628L11.8411 20.1666L13.1514 20.1666C14.8675 20.1668 15.9003 20.167 16.7588 19.876C18.4911 19.2889 19.8361 17.8774 20.3915 16.0942C20.6667 15.2107 20.6666 14.1462 20.6664 12.3431V12.0528C20.6666 10.2497 20.6667 9.18515 20.3915 8.30166Z" />
    </symbol>

    <symbol id="novaPoshta" viewBox="0 0 26 25">
        <path fill-rule="evenodd" clip-rule="evenodd"
            d="M20.3086 7.4016C20.3853 7.3775 20.4861 7.4257 20.587 7.55823C20.587 7.55823 20.587 7.55823 25.1451 12C25.4114 12.2651 25.4114 12.6667 25.1451 12.8634C25.1451 12.8634 25.1451 12.8634 20.587 17.3735C20.4861 17.506 20.3853 17.5381 20.3086 17.498C20.232 17.4578 20.1836 17.3414 20.1836 17.1727V7.69076C20.1836 7.5261 20.232 7.4257 20.3086 7.4016Z" />
        <path fill-rule="evenodd" clip-rule="evenodd"
            d="M12.5134 0H12.8361L13.1467 0.128515C13.1467 0.128515 13.1467 0.128514 17.838 4.77108C18.0397 5.03614 17.9711 5.23695 17.6363 5.23695C17.6363 5.23695 17.6363 5.23695 15.692 5.23695C15.3572 5.23695 15.091 5.50201 15.091 5.83534C15.091 5.83534 15.091 5.83534 15.091 9.28112C15.091 9.61446 14.8207 9.87952 14.4173 9.87952C14.4173 9.87952 14.4173 9.87952 11.0007 9.87952C10.6659 9.87952 10.3957 9.61446 10.3957 9.28112C10.3957 9.28112 10.3957 9.28112 10.3957 5.83534C10.3957 5.50201 10.1294 5.23695 9.79061 5.23695H7.71322C7.37842 5.23695 7.30984 5.03614 7.51153 4.77108C7.51153 4.77108 7.51153 4.77108 12.2068 0.128515L12.5134 0Z" />
        <path fill-rule="evenodd" clip-rule="evenodd"
            d="M5.16121 7.30121C5.24592 7.34137 5.29835 7.45784 5.29835 7.62651V17.3052C5.29835 17.4739 5.24592 17.5743 5.16121 17.6064C5.08053 17.6386 4.96355 17.6064 4.8264 17.506C4.8264 17.506 4.8264 17.506 0.199672 12.8635C-0.0665572 12.6667 -0.0665572 12.2651 0.199672 12C0.199672 12 0.199672 12 4.8264 7.42571C4.96355 7.29318 5.08053 7.26105 5.16121 7.30121Z" />
        <path fill-rule="evenodd" clip-rule="evenodd"
            d="M10.9966 14.9197C10.9966 14.9197 10.9966 14.9197 14.4132 14.9197C14.8166 14.9197 15.0868 15.1847 15.0868 15.5181C15.0868 15.5181 15.0868 15.5181 15.0868 19.1647C15.0868 19.5622 15.3531 19.8273 15.6879 19.8273H17.499C17.8338 19.8273 17.967 20.0241 17.7007 20.2249C17.7007 20.2249 17.7007 20.2249 13.1426 24.7992C13.0054 24.9317 12.84 25 12.6706 25C12.5052 25 12.3358 24.9317 12.2027 24.7992C12.2027 24.7992 12.2027 24.7992 7.64454 20.2249C7.37428 20.0241 7.50739 19.8273 7.8422 19.8273C7.8422 19.8273 7.8422 19.8273 9.78647 19.8273C10.1253 19.8273 10.3915 19.5622 10.3915 19.1647C10.3915 19.1647 10.3915 19.1647 10.3915 15.5181C10.3915 15.1847 10.6618 14.9197 10.9966 14.9197Z" />
    </symbol>

    <symbol id="calendar" viewBox="0 0 24 24">
        <path
            d="M8.25 14C8.25 13.5858 8.58579 13.25 9 13.25H15C15.4142 13.25 15.75 13.5858 15.75 14C15.75 14.4142 15.4142 14.75 15 14.75H9C8.58579 14.75 8.25 14.4142 8.25 14Z" />
        <path fill-rule="evenodd" clip-rule="evenodd"
            d="M9 1.25C9.41421 1.25 9.75 1.58579 9.75 2V3.26061C10.4192 3.25 11.1628 3.25 11.9889 3.25H12.0111C12.8372 3.25 13.5808 3.25 14.25 3.26061V2C14.25 1.58579 14.5858 1.25 15 1.25C15.4142 1.25 15.75 1.58579 15.75 2V3.31358C17.2619 3.40837 18.4234 3.65335 19.3798 4.34815C19.8679 4.70281 20.2972 5.13209 20.6518 5.62023C21.4537 6.7239 21.6564 8.10088 21.7206 9.97432C21.75 10.8315 21.75 11.8289 21.75 12.989V13.011C21.75 14.1711 21.75 15.1685 21.7206 16.0257C21.6564 17.8991 21.4537 19.2761 20.6518 20.3798C20.2972 20.8679 19.8679 21.2972 19.3798 21.6518C18.2761 22.4537 16.8991 22.6564 15.0257 22.7206C14.1684 22.75 13.171 22.75 12.0108 22.75H11.9547C10.1182 22.75 8.67861 22.75 7.53648 22.6263C6.37094 22.5 5.42656 22.2377 4.62024 21.6518C4.13209 21.2972 3.70281 20.8679 3.34815 20.3798C2.76232 19.5734 2.50001 18.6291 2.37373 17.4635C2.24999 16.3214 2.24999 14.8818 2.25 13.0452L2.25 12.9889C2.25 11.8289 2.25 10.8315 2.27937 9.97432C2.34356 8.10087 2.5463 6.7239 3.34815 5.62023C3.70281 5.13209 4.13209 4.70281 4.62024 4.34815C5.57655 3.65335 6.73808 3.40837 8.25 3.31358V2C8.25 1.58579 8.58579 1.25 9 1.25ZM8.25 4.81725C6.88795 4.91092 6.10177 5.12585 5.50191 5.56168C5.14111 5.82382 4.82382 6.14111 4.56168 6.50191C4.12585 7.10177 3.91092 7.88795 3.81725 9.25H20.1827C20.0891 7.88795 19.8741 7.10177 19.4383 6.50191C19.1762 6.14111 18.8589 5.82382 18.4981 5.56168C17.8982 5.12585 17.1121 4.91092 15.75 4.81725V5C15.75 5.41421 15.4142 5.75 15 5.75C14.5858 5.75 14.25 5.41421 14.25 5V4.76079C13.5904 4.75005 12.8476 4.75 12 4.75C11.1524 4.75 10.4096 4.75005 9.75 4.76079V5C9.75 5.41421 9.41421 5.75 9 5.75C8.58579 5.75 8.25 5.41421 8.25 5V4.81725ZM20.2392 10.75H3.76079C3.75005 11.4096 3.75 12.1524 3.75 13C3.75 14.8916 3.75103 16.25 3.865 17.302C3.97745 18.3399 4.19259 18.9901 4.56168 19.4981C4.82382 19.8589 5.14111 20.1762 5.50191 20.4383C6.00992 20.8074 6.66013 21.0225 7.69805 21.135C8.74999 21.249 10.1084 21.25 12 21.25C12.8483 21.25 13.5918 21.2499 14.2518 21.2392C14.2562 20.7645 14.271 20.4151 14.3208 20.1005C14.7105 17.6401 16.6401 15.7105 19.1005 15.3208C19.4151 15.271 19.7645 15.2562 20.2392 15.2518C20.25 14.5918 20.25 13.8483 20.25 13C20.25 12.1524 20.25 11.4096 20.2392 10.75ZM20.1826 16.7528C19.7776 16.7575 19.5402 16.7699 19.3352 16.8023C17.5166 17.0904 16.0904 18.5166 15.8023 20.3352C15.7699 20.5402 15.7575 20.7776 15.7528 21.1826C17.1131 21.0888 17.8986 20.8738 18.4981 20.4383C18.8589 20.1762 19.1762 19.8589 19.4383 19.4981C19.8738 18.8986 20.0888 18.1131 20.1826 16.7528Z" />
    </symbol>

    <symbol id="instagram" viewBox="0 0 20 20">
        <path
            d="M10 1.80723C12.6506 1.80723 13.0121 1.80723 14.0964 1.80723C15.0602 1.80723 15.5422 2.04819 15.9036 2.16868C16.3855 2.40964 16.747 2.53012 17.1084 2.89157C17.4699 3.25301 17.7108 3.61446 17.8313 4.09639C17.9518 4.45783 18.0723 4.93976 18.1928 5.90362C18.1928 6.98795 18.1928 7.22892 18.1928 10C18.1928 12.7711 18.1928 13.0121 18.1928 14.0964C18.1928 15.0602 17.9518 15.5422 17.8313 15.9036C17.5904 16.3855 17.4699 16.747 17.1084 17.1084C16.747 17.4699 16.3855 17.7108 15.9036 17.8313C15.5422 17.9518 15.0602 18.0723 14.0964 18.1928C13.0121 18.1928 12.7711 18.1928 10 18.1928C7.22892 18.1928 6.98795 18.1928 5.90362 18.1928C4.93976 18.1928 4.45783 17.9518 4.09639 17.8313C3.61446 17.5904 3.25301 17.4699 2.89157 17.1084C2.53012 16.747 2.28916 16.3855 2.16868 15.9036C2.04819 15.5422 1.92771 15.0602 1.80723 14.0964C1.80723 13.0121 1.80723 12.7711 1.80723 10C1.80723 7.22892 1.80723 6.98795 1.80723 5.90362C1.80723 4.93976 2.04819 4.45783 2.16868 4.09639C2.40964 3.61446 2.53012 3.25301 2.89157 2.89157C3.25301 2.53012 3.61446 2.28916 4.09639 2.16868C4.45783 2.04819 4.93976 1.92771 5.90362 1.80723C6.98795 1.80723 7.3494 1.80723 10 1.80723ZM10 0C7.22892 0 6.98795 0 5.90362 0C4.81928 0 4.09639 0.240965 3.49398 0.481928C2.89157 0.722892 2.28916 1.08434 1.68675 1.68675C1.08434 2.28916 0.843374 2.77109 0.481928 3.49398C0.240965 4.09639 0.120482 4.81928 0 5.90362C0 6.98795 0 7.3494 0 10C0 12.7711 0 13.0121 0 14.0964C0 15.1807 0.240965 15.9036 0.481928 16.506C0.722892 17.1084 1.08434 17.7108 1.68675 18.3133C2.28916 18.9157 2.77109 19.1566 3.49398 19.5181C4.09639 19.759 4.81928 19.8795 5.90362 20C6.98795 20 7.3494 20 10 20C12.6506 20 13.0121 20 14.0964 20C15.1807 20 15.9036 19.759 16.506 19.5181C17.1084 19.2771 17.7108 18.9157 18.3133 18.3133C18.9157 17.7108 19.1566 17.2289 19.5181 16.506C19.759 15.9036 19.8795 15.1807 20 14.0964C20 13.0121 20 12.6506 20 10C20 7.3494 20 6.98795 20 5.90362C20 4.81928 19.759 4.09639 19.5181 3.49398C19.2771 2.89157 18.9157 2.28916 18.3133 1.68675C17.7108 1.08434 17.2289 0.843374 16.506 0.481928C15.9036 0.240965 15.1807 0.120482 14.0964 0C13.0121 0 12.7711 0 10 0Z" />
        <path
            d="M10 4.81928C7.10843 4.81928 4.81928 7.10843 4.81928 10C4.81928 12.8916 7.10843 15.1807 10 15.1807C12.8916 15.1807 15.1807 12.8916 15.1807 10C15.1807 7.10843 12.8916 4.81928 10 4.81928ZM10 13.3735C8.19277 13.3735 6.62651 11.9277 6.62651 10C6.62651 8.19277 8.07229 6.62651 10 6.62651C11.8072 6.62651 13.3735 8.07229 13.3735 10C13.3735 11.8072 11.8072 13.3735 10 13.3735Z" />
        <path
            d="M15.3012 5.90362C15.9666 5.90362 16.506 5.3642 16.506 4.6988C16.506 4.03339 15.9666 3.49398 15.3012 3.49398C14.6358 3.49398 14.0964 4.03339 14.0964 4.6988C14.0964 5.3642 14.6358 5.90362 15.3012 5.90362Z" />
    </symbol>

    <symbol id="facebook" viewBox="0 0 12 23">
        <path
            d="M7.65708 12.3648H11.3793L11.9637 8.56055H7.65632V6.48134C7.65632 4.90099 8.16957 3.49962 9.63891 3.49962H12V0.179741C11.5852 0.123382 10.7078 0 9.04996 0C5.58819 0 3.55867 1.8393 3.55867 6.0297V8.56055H0V12.3648H3.55867V22.821C4.26344 22.9276 4.97729 23 5.71007 23C6.37245 23 7.01893 22.9391 7.65708 22.8522V12.3648Z" />
    </symbol>

    <symbol id="youTube" viewBox="0 0 22 16">
        <path fill-rule="evenodd" clip-rule="evenodd"
            d="M2.26249 15.0568C1.87023 14.9408 1.51232 14.7343 1.21896 14.4549C0.925599 14.1754 0.705403 13.8312 0.576947 13.4512C-0.157079 11.4874 -0.374569 3.28693 1.03911 1.66807C1.50961 1.14145 2.17389 0.817218 2.88777 0.765759C6.68024 0.36768 18.3975 0.420757 19.7432 0.898453C20.1217 1.01832 20.4675 1.22026 20.7547 1.48912C21.0419 1.75799 21.263 2.08681 21.4015 2.45096C22.2035 4.48117 22.2307 11.8589 21.2928 13.8095C21.044 14.3173 20.6275 14.7285 20.1102 14.9772C18.6965 15.6672 4.13833 15.6539 2.26249 15.0568ZM8.28422 11.2087L15.0808 7.75869L8.28422 4.28213V11.2087Z" />
    </symbol>

    <symbol id="chat" viewBox="0 0 22 23">
        <path fill-rule="evenodd" clip-rule="evenodd"
            d="M3.41388 8.26099C3.74878 6.50204 4.59659 4.82081 5.95587 3.45982C9.56443 -0.153275 15.4154 -0.153275 19.024 3.45982C20.1248 4.56202 21.097 6.19355 21.5221 8.00489C21.9499 9.8272 21.8313 11.8742 20.676 13.7356C20.6168 13.8309 20.5802 13.8899 20.5544 13.9341C20.5425 13.9545 20.5362 13.9661 20.5336 13.9711C20.5311 13.9775 20.5297 13.9819 20.5288 13.9847C20.5288 13.988 20.5289 13.9936 20.5295 14.0021C20.5302 14.006 20.5319 14.0147 20.5352 14.0295C20.5438 14.0674 20.5568 14.118 20.5799 14.2074L20.5866 14.2334C20.7193 14.7459 20.8284 15.1672 20.8925 15.5076C20.957 15.8502 20.9944 16.196 20.9257 16.5337C20.73 17.4967 19.9782 18.25 19.0152 18.4462C18.6774 18.515 18.3316 18.4776 17.9893 18.4129C17.6492 18.3487 17.2284 18.2395 16.7165 18.1067L16.6906 18.0999C16.6013 18.0768 16.5507 18.0637 16.513 18.0552C16.4983 18.0518 16.4897 18.0502 16.4857 18.0495C16.4779 18.0489 16.4725 18.0488 16.4692 18.0487C16.4664 18.0496 16.4622 18.0511 16.4564 18.0532C16.4514 18.0559 16.4396 18.0622 16.4191 18.0742C16.3746 18.1002 16.3151 18.1369 16.2192 18.1962C15.5993 18.5798 14.9541 18.8479 14.3005 19.0177C14.058 19.3554 13.7854 19.6778 13.4826 19.9808C12.5908 20.8739 11.2285 21.6843 9.71111 22.0478C8.1832 22.4137 6.44238 22.3371 4.86718 21.3624C4.79079 21.3151 4.74412 21.2863 4.7097 21.2661C4.68224 21.2727 4.64448 21.2824 4.58189 21.2986L4.55666 21.3052C4.13844 21.4137 3.78817 21.5046 3.50368 21.5584C3.21699 21.6125 2.91168 21.6473 2.60781 21.5854C1.76267 21.4132 1.10293 20.752 0.931185 19.9071C0.869454 19.6034 0.904135 19.2981 0.958182 19.0112C1.01181 18.7264 1.10258 18.3758 1.21099 17.957L1.21753 17.9318C1.23393 17.8684 1.24368 17.8305 1.25022 17.8029C1.23012 17.7687 1.20143 17.7224 1.15411 17.6461C0.18042 16.0774 0.0823613 14.3541 0.440872 12.8267C0.796808 11.3103 1.60998 9.94499 2.53337 9.02044C2.81159 8.74187 3.10608 8.48867 3.41388 8.26099ZM7.0172 4.51982C10.0398 1.49339 14.9401 1.49339 17.9627 4.51982C18.8726 5.43094 19.7024 6.81632 20.0618 8.34766C20.4187 9.86803 20.3046 11.4895 19.4015 12.9445C19.393 12.9583 19.3843 12.9722 19.3756 12.9862C19.2895 13.1244 19.1967 13.2733 19.143 13.4084C19.0476 13.6482 19.0146 13.8652 19.0343 14.1225C19.0454 14.2671 19.0842 14.4161 19.1184 14.5471C19.1216 14.5593 19.1247 14.5714 19.1278 14.5833C19.2689 15.1282 19.3648 15.5004 19.4184 15.7852C19.4727 16.0735 19.4654 16.1875 19.4558 16.235C19.3798 16.609 19.088 16.9005 18.7157 16.9764C18.6689 16.9859 18.5554 16.9933 18.2676 16.939C17.9833 16.8853 17.6117 16.7893 17.0674 16.648C17.0555 16.6449 17.0434 16.6418 17.0311 16.6386C16.9005 16.6044 16.7516 16.5655 16.6074 16.5544C16.3503 16.5345 16.1347 16.5671 15.8951 16.6621C15.7603 16.7156 15.6109 16.8083 15.472 16.8946C15.4579 16.9034 15.4439 16.9121 15.43 16.9207C15.4026 16.9376 15.3752 16.9542 15.3478 16.9705C16.252 14.2706 15.6309 11.1714 13.4826 9.02044C11.2563 6.7913 8.01213 6.20388 5.24874 7.25716C5.62506 6.25929 6.21437 5.32365 7.0172 4.51982ZM4.52033 9.31521C6.94742 7.67382 10.2731 7.9295 12.4213 10.0804C14.5519 12.2137 14.8212 15.5073 13.2263 17.9329C12.997 18.2817 12.7288 18.613 12.4213 18.9208C11.7249 19.6181 10.6089 20.2903 9.36171 20.589C8.12503 20.8852 6.81491 20.8036 5.65644 20.0868C5.64495 20.0797 5.63315 20.0724 5.62108 20.0649C5.50954 19.9955 5.37549 19.9122 5.25253 19.8634C5.03646 19.7777 4.83873 19.7478 4.60696 19.7657C4.47555 19.7759 4.34093 19.8112 4.23568 19.8388C4.22518 19.8415 4.21498 19.8442 4.2051 19.8467C3.75505 19.9635 3.45412 20.0412 3.22539 20.0844C2.99317 20.1282 2.92023 20.1182 2.90731 20.1156C2.65282 20.0637 2.45317 19.8644 2.40113 19.6083C2.39839 19.5948 2.38846 19.5214 2.43227 19.2888C2.47542 19.0596 2.55303 18.7582 2.66966 18.3077C2.67222 18.2978 2.67489 18.2876 2.67763 18.2771C2.7052 18.1716 2.74041 18.0368 2.7505 17.9051C2.76828 17.6731 2.73801 17.4742 2.65202 17.258C2.60301 17.1348 2.51967 17.0012 2.45043 16.8902C2.44296 16.8782 2.43566 16.8665 2.42858 16.8551C1.70711 15.6927 1.61355 14.3949 1.90118 13.1695C2.19139 11.9331 2.86214 10.8139 3.5947 10.0804C3.88414 9.79062 4.19437 9.53565 4.52033 9.31521Z" />
        <path
            d="M9.99985 14.5C9.99985 15.0523 10.4476 15.5 10.9998 15.5C11.5521 15.5 11.9998 15.0523 11.9998 14.5C11.9998 13.9477 11.5521 13.5 10.9998 13.5C10.4476 13.5 9.99985 13.9477 9.99985 14.5Z" />
        <path
            d="M6.99985 14.5C6.99985 15.0523 7.44756 15.5 7.99985 15.5C8.55213 15.5 8.99985 15.0523 8.99985 14.5C8.99985 13.9477 8.55213 13.5 7.99985 13.5C7.44756 13.5 6.99985 13.9477 6.99985 14.5Z" />
        <path
            d="M3.99985 14.5C3.99985 15.0523 4.44756 15.5 4.99985 15.5C5.55213 15.5 5.99985 15.0523 5.99985 14.5C5.99985 13.9477 5.55213 13.5 4.99985 13.5C4.44756 13.5 3.99985 13.9477 3.99985 14.5Z" />
    </symbol>
</svg>
        <symbol id="filterBtn" viewBox="0 0 20 21">
            <path
                d="M1 4.47246C1 2.55467 2.55467 1 4.47246 1H15.5842C17.4707 1 19 2.52929 19 4.41577C19 5.42052 18.5576 6.37431 17.7906 7.02332L14.2703 10.0021C13.1475 10.9521 12.5 12.3482 12.5 13.819V15.5996C12.5 16.4795 12.079 17.3062 11.3675 17.8237L9.42621 19.2355C8.41646 19.9698 7 19.2485 7 18V13.6995C7 12.298 6.41177 10.9608 5.37862 10.0137L2.12603 7.0322C1.40852 6.37448 1 5.44581 1 4.47246Z" />
        </symbol>
        <symbol id="shwoMore" viewBox="0 0 24 25">
            <path
                d="M13.7211 3.02851C13.4608 2.76816 13.0386 2.76816 12.7783 3.02851C12.5179 3.28886 12.5179 3.71097 12.7783 3.97132L13.6402 4.83325L11.8519 4.83324C10.1319 4.83302 9.1033 4.83289 8.2486 5.1106C6.52345 5.67113 5.17091 7.02367 4.61038 8.74882C4.33267 9.60352 4.3328 10.6321 4.33302 12.3521V12.6477C4.3328 14.3677 4.33267 15.3963 4.61038 16.251C4.72416 16.6012 5.10026 16.7928 5.45043 16.679C5.8006 16.5653 5.99223 16.1892 5.87845 15.839C5.67459 15.2116 5.66637 14.4131 5.66637 12.4999C5.66637 10.5867 5.67459 9.78827 5.87845 9.16084C6.3071 7.84161 7.34139 6.80732 8.66063 6.37867C9.28805 6.17481 10.0865 6.16659 11.9997 6.16659H13.4083L12.5729 6.86277C12.2901 7.09848 12.2518 7.51886 12.4876 7.80171C12.7233 8.08456 13.1436 8.12278 13.4265 7.88707L14.8353 6.71309C15.2012 6.4081 15.4019 5.98043 15.4312 5.5446C15.4621 5.0849 15.3026 4.61 14.9468 4.25421L13.7211 3.02851Z" />
            <path
                d="M20.3915 8.30166C20.282 7.95013 19.9083 7.75392 19.5567 7.86341C19.2052 7.97291 19.009 8.34665 19.1185 8.69818C19.3254 9.36254 19.333 10.2064 19.333 12.1979C19.333 14.1895 19.3254 15.0333 19.1185 15.6977C18.6847 17.0903 17.6428 18.1686 16.3308 18.6133C15.7079 18.8244 14.9148 18.8333 12.9997 18.8333H11.6092L12.4711 17.9713C12.7315 17.711 12.7315 17.2889 12.4711 17.0285C12.2108 16.7682 11.7886 16.7682 11.5283 17.0285L10.3026 18.2542C9.94681 18.61 9.78732 19.0849 9.8182 19.5446C9.84748 19.9804 10.0482 20.4081 10.4141 20.7131L11.8229 21.8871C12.1058 22.1228 12.5261 22.0846 12.7618 21.8017C12.9976 21.5189 12.9593 21.0985 12.6765 20.8628L11.8411 20.1666L13.1514 20.1666C14.8675 20.1668 15.9003 20.167 16.7588 19.876C18.4911 19.2889 19.8361 17.8774 20.3915 16.0942C20.6667 15.2107 20.6666 14.1462 20.6664 12.3431V12.0528C20.6666 10.2497 20.6667 9.18515 20.3915 8.30166Z" />
        </symbol>
</svg>
