<svg width="30" height="30" viewBox="0 0 30 30" fill="none" xmlns="http://www.w3.org/2000/svg">
<path d="M28.3345 8.01797L15.2095 1.45547C15.1445 1.42295 15.0727 1.40603 15 1.40603C14.9273 1.40603 14.8555 1.42295 14.7905 1.45547L1.66548 8.01797C1.58755 8.0569 1.52202 8.11678 1.47624 8.19089C1.43045 8.26499 1.40622 8.35039 1.40626 8.4375V21.5625C1.40578 21.65 1.42981 21.7359 1.47562 21.8105C1.52143 21.885 1.5872 21.9453 1.66548 21.9844L14.7905 28.5469C14.8555 28.5794 14.9273 28.5963 15 28.5963C15.0727 28.5963 15.1445 28.5794 15.2095 28.5469L28.3345 21.9844C28.4128 21.9453 28.4786 21.885 28.5244 21.8105C28.5702 21.7359 28.5942 21.65 28.5938 21.5625V8.4375C28.5938 8.35039 28.5696 8.26499 28.5238 8.19089C28.478 8.11678 28.4125 8.0569 28.3345 8.01797ZM15 14.4759L11.3358 12.6436L23.048 6.42187L27.0792 8.4375L15 14.4759ZM7.58579 10.7686L19.298 4.54687L22.0167 5.90625L10.3059 12.1289L7.58579 10.7686ZM7.03126 11.5397L9.84376 12.9459V16.6809L8.76891 15.6061C8.68103 15.5182 8.56182 15.4688 8.43751 15.4687H7.03126V11.5397ZM15 2.39906L18.2681 4.03125L6.55594 10.2539L2.92313 8.4375L15 2.39906ZM2.34376 9.19593L6.09376 11.0709V15.9375C6.09376 16.0618 6.14314 16.181 6.23105 16.269C6.31896 16.3569 6.43819 16.4062 6.56251 16.4062H8.24345L9.9811 18.1439C10.0467 18.2094 10.1302 18.2541 10.2211 18.2721C10.312 18.2902 10.4062 18.2809 10.4919 18.2455C10.5775 18.21 10.6507 18.1499 10.7022 18.0729C10.7537 17.9958 10.7812 17.9052 10.7813 17.8125V13.4147L14.5313 15.2897V27.3666L2.34376 21.2728V9.19593ZM15.4688 27.3666V15.2897L27.6563 9.19593V21.2728L15.4688 27.3666Z" fill="#282934"/>
</svg>
