<svg width="227" height="125" viewBox="0 0 227 125" fill="none" xmlns="http://www.w3.org/2000/svg">
<g filter="url(#filter0_ddddd_2025_742)">
<path d="M113.5 1C57.6285 1 13.4622 10.8951 5 12.9225V84.0341C13.4622 86.0766 57.6285 95.9717 113.5 95.9717C169.372 95.9717 213.538 86.0766 222 84.0492V12.9377C213.538 10.8951 169.372 1 113.5 1Z" fill="#282934"/>
<path d="M76.921 94.5647V99.134C39.1052 96.335 11.4862 90.1316 5 88.5883V84.019C11.4862 85.5774 39.0901 91.7808 76.921 94.5647Z" fill="#FFDE14"/>
<path d="M221.999 84.019V88.5883C215.513 90.1316 187.909 96.3501 150.078 99.134V94.5647C187.909 91.7657 215.513 85.5623 221.999 84.019Z" fill="#1D1D1B"/>
<path d="M113.483 95.942C100.556 95.942 88.2772 95.4125 76.9038 94.5652V99.1345C88.2772 99.9666 100.556 100.511 113.483 100.511C126.41 100.511 138.688 99.9818 150.062 99.1345V94.5652C138.688 95.3973 126.41 95.942 113.483 95.942Z" fill="#A81815"/>
<path d="M55.1814 51.051C55.9657 50.7484 56.5691 50.5215 57.1876 50.234C60.6418 48.7059 62.3614 45.9068 61.9089 42.563C61.5318 39.6127 59.7519 37.8273 57.1725 36.6925C54.0501 35.3157 50.7165 34.9072 47.3376 34.8618C46.8248 34.8618 46.327 34.8315 45.8141 34.8315H26.8232V62.1111H38.5889V52.1253H44.6677L51.0483 62.1111H62.9346C60.0385 57.9957 56.7803 53.3205 55.1814 51.051ZM49.7662 45.6647C49.2533 47.677 47.8203 48.7664 45.8141 48.8874C45.5577 48.9177 45.075 48.9177 44.5169 48.9328H38.5889V37.8424C38.5889 37.8424 43.9437 37.8424 44.8488 37.8727C47.941 37.9483 49.6908 39.4765 50.0377 42.5782C50.1433 43.5919 50.0377 44.6661 49.7662 45.6496" fill="white"/>
<path d="M74.2683 40.8673L77.9035 40.5496V62.11H68.0234V47.7061C68.0234 44.1505 70.7386 41.1699 74.2683 40.8673Z" fill="white"/>
<path d="M78.6201 34.7096C78.6201 36.6765 76.0709 38.2652 72.9485 38.2652C69.8261 38.2652 67.2769 36.6765 67.2769 34.7096C67.2769 32.7427 69.811 31.1541 72.9485 31.1541C76.086 31.1541 78.6201 32.7427 78.6201 34.7096Z" fill="white"/>
<path d="M103.981 58.207C103.981 57.4202 104.012 56.5124 103.981 55.5895V48.4481C103.981 45.5431 101.628 43.1828 98.7171 43.1828C95.8059 43.1828 93.4527 45.5431 93.4527 48.4481V62.1106H83.5425V49.719C83.5425 44.4688 87.7811 40.2021 93.0304 40.2021H104.343C109.563 40.2021 113.801 44.4235 113.831 49.6433V50.6268C113.831 55.7257 113.846 62.1106 113.846 62.1106H103.981V58.207Z" fill="white"/>
<path d="M139.452 42.5321C138.231 41.942 137.476 41.3822 136.013 40.9283C133.66 40.2172 131.141 40.0356 128.712 40.3382C126.45 40.6408 123.87 41.2763 122.045 42.6834C120.627 43.7728 119.662 45.3312 119.164 47.056C118.335 50.0366 118.35 53.0324 119.27 56.013C120.084 58.6759 121.879 60.431 124.459 61.3237C125.605 61.7322 126.797 62.0348 127.988 62.1861C132.091 62.7006 136.073 62.7006 139.377 59.0845V62.1105C139.483 65.772 136.918 67.5573 133.947 67.7994C131.05 68.0263 128.169 67.7237 125.379 66.8311C125.047 66.71 124.791 66.6344 124.625 66.5436L124.021 66.3166L122.905 70.7346L123.795 71.0221C123.976 71.0675 124.323 71.1734 124.64 71.2793C128.743 72.4292 132.981 72.7318 137.22 72.4746C140.191 72.2779 143.042 71.5668 145.607 69.9327C147.809 68.5408 149.287 64.9247 149.302 62.2013V40.5955L139.498 42.5321H139.452ZM139.317 54.3336C139.241 58.1766 134.399 60.9152 131.05 58.9937C130.115 58.4641 129.512 57.5261 129.15 56.4972C128.064 53.4258 128.185 49.734 129.105 46.6324C129.633 44.847 130.975 43.5307 132.83 43.2281C134.837 42.8952 137.22 43.3037 138.683 44.8016C139.437 45.5884 139.362 46.9047 139.362 47.9336C139.332 50.0669 139.362 52.2003 139.317 54.3336Z" fill="white"/>
<path d="M174.956 55.8775C174.624 56.9215 174.096 57.9049 173.236 58.6009C172.271 59.3574 171.034 59.6752 169.842 59.6752C164.216 59.6752 164.322 52.3068 164.322 52.3068H185.228C185.198 52.0042 185.198 51.6713 185.183 51.3687C185.062 49.9919 184.911 48.6453 184.429 47.3441C183.946 46.0732 183.192 44.7569 182.166 43.8037C181.095 42.8656 179.934 42.1848 178.621 41.7006C172.92 39.5975 167.037 39.6126 161.335 41.5493C155.15 43.6373 152.616 50.2945 155.407 56.2255C156.825 59.2061 159.329 60.7494 162.376 61.5362C167.172 62.7768 172.014 62.7617 176.856 61.6875C179.24 61.1579 181.442 60.1139 183.116 58.2075C184.037 57.1636 184.685 55.9532 184.972 54.425H175.318C175.288 54.7881 175.212 55.2118 174.986 55.8926M169.827 43.1682C175.484 43.1682 175.348 49.417 175.348 49.417H164.291C164.291 49.417 164.186 43.1682 169.812 43.1682" fill="white"/>
<path d="M196.52 32.3653L200.155 32.0476V62.1111H190.275V39.2042C190.275 35.6486 192.99 32.6831 196.52 32.3653Z" fill="white"/>
</g>
<defs>
<filter id="filter0_ddddd_2025_742" x="0" y="0" width="227" height="124.511" filterUnits="userSpaceOnUse" color-interpolation-filters="sRGB">
<feFlood flood-opacity="0" result="BackgroundImageFix"/>
<feColorMatrix in="SourceAlpha" type="matrix" values="0 0 0 0 0 0 0 0 0 0 0 0 0 0 0 0 0 0 127 0" result="hardAlpha"/>
<feOffset dy="1"/>
<feGaussianBlur stdDeviation="1"/>
<feColorMatrix type="matrix" values="0 0 0 0 0 0 0 0 0 0 0 0 0 0 0 0 0 0 0.39 0"/>
<feBlend mode="normal" in2="BackgroundImageFix" result="effect1_dropShadow_2025_742"/>
<feColorMatrix in="SourceAlpha" type="matrix" values="0 0 0 0 0 0 0 0 0 0 0 0 0 0 0 0 0 0 127 0" result="hardAlpha"/>
<feOffset dy="3"/>
<feGaussianBlur stdDeviation="1.5"/>
<feColorMatrix type="matrix" values="0 0 0 0 0 0 0 0 0 0 0 0 0 0 0 0 0 0 0.34 0"/>
<feBlend mode="normal" in2="effect1_dropShadow_2025_742" result="effect2_dropShadow_2025_742"/>
<feColorMatrix in="SourceAlpha" type="matrix" values="0 0 0 0 0 0 0 0 0 0 0 0 0 0 0 0 0 0 127 0" result="hardAlpha"/>
<feOffset dy="7"/>
<feGaussianBlur stdDeviation="2"/>
<feColorMatrix type="matrix" values="0 0 0 0 0 0 0 0 0 0 0 0 0 0 0 0 0 0 0.2 0"/>
<feBlend mode="normal" in2="effect2_dropShadow_2025_742" result="effect3_dropShadow_2025_742"/>
<feColorMatrix in="SourceAlpha" type="matrix" values="0 0 0 0 0 0 0 0 0 0 0 0 0 0 0 0 0 0 127 0" result="hardAlpha"/>
<feOffset dy="12"/>
<feGaussianBlur stdDeviation="2.5"/>
<feColorMatrix type="matrix" values="0 0 0 0 0 0 0 0 0 0 0 0 0 0 0 0 0 0 0.06 0"/>
<feBlend mode="normal" in2="effect3_dropShadow_2025_742" result="effect4_dropShadow_2025_742"/>
<feColorMatrix in="SourceAlpha" type="matrix" values="0 0 0 0 0 0 0 0 0 0 0 0 0 0 0 0 0 0 127 0" result="hardAlpha"/>
<feOffset dy="19"/>
<feGaussianBlur stdDeviation="2.5"/>
<feColorMatrix type="matrix" values="0 0 0 0 0 0 0 0 0 0 0 0 0 0 0 0 0 0 0.01 0"/>
<feBlend mode="normal" in2="effect4_dropShadow_2025_742" result="effect5_dropShadow_2025_742"/>
<feBlend mode="normal" in="SourceGraphic" in2="effect5_dropShadow_2025_742" result="shape"/>
</filter>
</defs>
</svg>
